<?xml version="1.0" standalone="no"?>
<!DOCTYPE svg PUBLIC "-//W3C//DTD SVG 1.1//EN" "http://www.w3.org/Graphics/SVG/1.1/DTD/svg11.dtd" >
<svg xmlns="http://www.w3.org/2000/svg" xmlns:xlink="http://www.w3.org/1999/xlink" version="1.1">
<metadata>
Created by FontForge 20150318 at Sat May 30 13:00:44 2015
 By uniteet7
Copyright (c) 2014 by FONTYOU. All rights reserved. www.fontyou.com
</metadata>
<defs>
<font id="FontyouLisztFYRegular" horiz-adv-x="500" >
  <font-face 
    font-family="FontyouLisztFYRegular"
    font-weight="400"
    font-stretch="normal"
    units-per-em="1000"
    panose-1="2 11 5 3 2 2 1 2 0 4"
    ascent="800"
    descent="-200"
    x-height="513"
    cap-height="690"
    bbox="-182 -265 1300 955"
    underline-thickness="50"
    underline-position="-75"
    unicode-range="U+000D-FB02"
  />
<missing-glyph horiz-adv-x="602" 
d="M100 395q0 46 28 75.5t71 29.5q30 0 56 -17.5t42 -47.5h8q16 30 42 47.5t56 17.5q43 0 71 -29.5t28 -75.5q0 -66 -56.5 -140.5t-144.5 -119.5q-88 45 -144.5 119.5t-56.5 140.5z" />
    <glyph glyph-name="fi" unicode="fi" horiz-adv-x="571" 
d="M395 594v133h98v-133h-98zM183 513h134v-77h-134v-436h-98v435h-76v78h76v25q0 97 45 149.5t125 52.5q26 0 46 -5t38 -16v-83q-13 9 -30.5 13.5t-35.5 4.5q-45 0 -67.5 -28.5t-22.5 -85.5v-27zM395 0v513h98v-513h-98z" />
    <glyph glyph-name="fl" unicode="fl" horiz-adv-x="571" 
d="M395 723l98 17v-740h-98v723zM183 513h134v-77h-134v-436h-98v435h-76v78h76v25q0 97 45 149.5t125 52.5q26 0 46 -5t38 -16v-83q-13 9 -30.5 13.5t-35.5 4.5q-45 0 -67.5 -28.5t-22.5 -85.5v-27z" />
    <glyph glyph-name=".notdef" horiz-adv-x="602" 
d="M100 395q0 46 28 75.5t71 29.5q30 0 56 -17.5t42 -47.5h8q16 30 42 47.5t56 17.5q43 0 71 -29.5t28 -75.5q0 -66 -56.5 -140.5t-144.5 -119.5q-88 45 -144.5 119.5t-56.5 140.5z" />
    <glyph glyph-name=".null" horiz-adv-x="0" 
 />
    <glyph glyph-name=".null" horiz-adv-x="0" 
 />
    <glyph glyph-name="nonmarkingreturn" horiz-adv-x="333" 
 />
    <glyph glyph-name="CR" unicode="&#xd;" horiz-adv-x="0" 
 />
    <glyph glyph-name="space" unicode=" " horiz-adv-x="242" 
 />
    <glyph glyph-name="exclam" unicode="!" horiz-adv-x="290" 
d="M177 208h-66l-26 233v249h119v-249zM196 0h-108v121h108v-121z" />
    <glyph glyph-name="quotedbl" unicode="&#x22;" horiz-adv-x="340" 
d="M291 690l-10 -197h-65l-11 197h86zM134 690l-11 -197h-65l-10 197h86z" />
    <glyph glyph-name="numbersign" unicode="#" horiz-adv-x="728" 
d="M468 416h-156l-53 -146h155zM74 0l71 194h-119v76h147l54 146h-125v76h152l73 198h85l-72 -198h155l73 198h85l-72 -198h121v-76h-149l-53 -146h126v-76h-154l-71 -194h-86l71 194h-155l-71 -194h-86z" />
    <glyph glyph-name="dollar" unicode="$" horiz-adv-x="544" 
d="M229 601q-31 -10 -48 -30t-17 -48q0 -30 15 -51.5t50 -41.5v171zM297 86q43 9 65.5 32.5t22.5 59.5q0 33 -19.5 57.5t-68.5 51.5v-201zM493 185q0 -79 -52.5 -130t-143.5 -62v-75h-68v73q-49 2 -95 17t-77 38v97q39 -27 83 -43t89 -18v237q-100 47 -136 90t-36 107
q0 72 46 120t126 60v85h68v-81q42 -2 79.5 -12.5t70.5 -28.5v-94q-34 18 -72.5 29t-77.5 14v-211q111 -46 153.5 -93t42.5 -119z" />
    <glyph glyph-name="percent" unicode="%" horiz-adv-x="924" 
d="M376 501q0 -88 -47.5 -143t-123.5 -55q-77 0 -124 54.5t-47 143.5t47.5 144t123.5 55t123.5 -55t47.5 -144zM112 501q0 -62 24 -95t69 -33t69 33t24 95q0 61 -24 94t-69 33t-69 -33t-24 -94zM695 690l-388 -690h-78l392 690h74zM889 197q0 -88 -47.5 -143t-123.5 -55
q-77 0 -124 54.5t-47 143.5t47.5 144t123.5 55t123.5 -55t47.5 -144zM625 197q0 -62 24 -95t69 -33t69 33t24 95q0 61 -24 94t-69 33t-69 -33t-24 -94z" />
    <glyph glyph-name="ampersand" unicode="&#x26;" horiz-adv-x="709" 
d="M583 129l85 -78l-63 -61l-84 77q-47 -38 -102.5 -57.5t-119.5 -19.5q-111 0 -180.5 52t-69.5 140q0 63 38 109t111 72q-49 45 -69.5 82t-20.5 79q0 78 56 127t150 49q88 0 144 -46t56 -114q0 -63 -41.5 -109.5t-129.5 -80.5l178 -164q20 24 35.5 53t26.5 60l82 -26
q-18 -42 -38 -78t-44 -66zM414 530q0 39 -28.5 64t-71.5 25q-48 0 -76.5 -26.5t-28.5 -69.5q0 -25 17 -52t71 -78q67 36 92 66t25 71zM247 318q-47 -18 -71.5 -49t-24.5 -73q0 -53 44 -85.5t114 -32.5q40 0 77.5 12t70.5 36z" />
    <glyph glyph-name="quotesingle" unicode="'" horiz-adv-x="182" 
d="M134 690l-11 -197h-65l-10 197h86z" />
    <glyph glyph-name="parenleft" unicode="(" horiz-adv-x="366" 
d="M276 -146q-101 79 -159 198t-58 247q0 129 58 248.5t160 197.5l47 -39q-80 -89 -121 -192t-41 -215q0 -113 41 -216t121 -191z" />
    <glyph glyph-name="parenright" unicode=")" horiz-adv-x="366" 
d="M203 299q0 113 -41 216t-121 191l48 39q102 -79 160 -198.5t58 -247.5q0 -127 -58 -246.5t-159 -198.5l-49 38q80 88 121 191t41 216z" />
    <glyph glyph-name="asterisk" unicode="*" horiz-adv-x="413" 
d="M67 633l116 -56l-9 140h65l-8 -140l115 56l30 -61l-131 -43l95 -101l-51 -43l-82 113l-82 -112l-50 43l93 100l-132 43z" />
    <glyph glyph-name="plus" unicode="+" horiz-adv-x="571" 
d="M244 591h82v-211h200v-76h-200v-215h-82v215h-200v76h200v211z" />
    <glyph glyph-name="comma" unicode="," horiz-adv-x="219" 
d="M100 0h-45v121h108v-81q0 -61 -22.5 -102.5t-71.5 -76.5l-25 25q27 26 41.5 55.5t14.5 58.5z" />
    <glyph glyph-name="hyphen" unicode="-" horiz-adv-x="418" 
d="M360 317v-76h-302v76h302z" />
    <glyph glyph-name="period" unicode="." horiz-adv-x="219" 
d="M163 0h-108v121h108v-121z" />
    <glyph glyph-name="slash" unicode="/" horiz-adv-x="406" 
d="M387 695l-276 -695h-92l276 695h92z" />
    <glyph glyph-name="zero" unicode="0" horiz-adv-x="694" 
d="M647 345q0 -161 -82 -258t-218 -97t-218.5 97t-82.5 258t82.5 258t218.5 97t218 -97t82 -258zM153 345q0 -124 51 -192.5t143 -68.5q93 0 143.5 68t50.5 193q0 124 -50.5 192t-143.5 68t-143.5 -68t-50.5 -192z" />
    <glyph glyph-name="one" unicode="1" horiz-adv-x="353" 
d="M37 518v95l136 70h97v-683h-103v580z" />
    <glyph glyph-name="two" unicode="2" horiz-adv-x="551" 
d="M387 507q0 44 -36 71t-99 27q-50 0 -95 -13t-89 -40v100q44 24 95 36t106 12q98 0 160 -50.5t62 -129.5q0 -58 -28 -107t-95 -104l-126 -103q-43 -36 -62.5 -62t-24.5 -53h351v-91h-472v35q0 62 30.5 117t93.5 105l111 91q77 62 97.5 91.5t20.5 67.5z" />
    <glyph glyph-name="three" unicode="3" horiz-adv-x="551" 
d="M231 84q80 0 124 31t44 86q0 54 -38.5 83t-108.5 29h-102v83h103q65 0 102 27.5t37 76.5q0 48 -40.5 76.5t-109.5 28.5q-50 0 -100 -14t-93 -40v96q43 26 93.5 39.5t106.5 13.5q107 0 176 -51.5t69 -133.5q0 -57 -33 -99.5t-91 -60.5q63 -17 98.5 -60t35.5 -103
q0 -89 -75 -145.5t-188 -56.5q-56 0 -107 12t-92 35v96q47 -25 94 -37t95 -12z" />
    <glyph glyph-name="four" unicode="4" horiz-adv-x="606" 
d="M42 222l275 468h106l-268 -465h227v139l99 54v-193h89v-92h-89v-133h-98v133h-341v89z" />
    <glyph glyph-name="five" unicode="5" horiz-adv-x="570" 
d="M527 217q0 -103 -69.5 -165t-184.5 -62q-61 0 -120 12t-98 32v101q48 -24 102.5 -37t105.5 -13q71 0 113.5 36t42.5 96q0 61 -46.5 96t-128.5 35q-38 0 -79 -4.5t-87 -13.5l17 360h364v-92h-276l-7 -173q21 4 49.5 7t49.5 3q116 0 184 -59t68 -159z" />
    <glyph glyph-name="six" unicode="6" horiz-adv-x="607" 
d="M566 227q0 -103 -71.5 -170t-181.5 -67q-122 0 -194.5 88t-72.5 233q0 170 88 279.5t231 109.5q29 0 53.5 -3t48.5 -10v-98q-21 8 -45.5 12t-52.5 4q-91 0 -147.5 -64t-69.5 -172q38 38 85 57t105 19q99 -1 161.5 -62t62.5 -156zM312 84q67 0 107 39t40 104
q0 62 -40 98.5t-109 36.5q-47 0 -86.5 -16.5t-74.5 -52.5q3 -98 46 -153.5t117 -55.5z" />
    <glyph glyph-name="seven" unicode="7" horiz-adv-x="521" 
d="M186 0h-113l307 598h-347v92h458v-86z" />
    <glyph glyph-name="eight" unicode="8" horiz-adv-x="602" 
d="M397 373q89 -36 128 -78t39 -101q0 -90 -73.5 -147t-187.5 -57q-116 0 -190.5 53.5t-74.5 135.5q0 59 41.5 106.5t113.5 74.5q-59 27 -88.5 66t-29.5 91q0 76 66 129.5t163 53.5q98 0 160.5 -48t62.5 -121q0 -49 -34 -90t-96 -68zM303 610q-52 0 -87 -28t-35 -69
q0 -30 23 -52.5t77 -43.5l41 -16q48 21 73 50t25 63q0 40 -33.5 68t-83.5 28zM264 332q-55 -21 -86.5 -56t-31.5 -78q0 -52 44 -85.5t112 -33.5t111 31t43 82q0 36 -27 61.5t-87 47.5z" />
    <glyph glyph-name="nine" unicode="9" horiz-adv-x="610" 
d="M293 326q51 0 92 16.5t76 52.5q-3 99 -46.5 154.5t-118.5 55.5q-67 0 -107.5 -39.5t-40.5 -104.5q0 -61 39 -98t106 -37zM234 -9q-35 0 -64.5 5t-58.5 16v99q25 -13 54 -19.5t65 -6.5q93 0 152 60.5t74 165.5q-38 -34 -85 -51t-100 -17q-101 0 -165.5 62t-64.5 157
q0 104 72 171t183 67q122 0 195 -88t73 -232q0 -170 -91 -279.5t-239 -109.5z" />
    <glyph glyph-name="colon" unicode=":" horiz-adv-x="237" 
d="M172 387h-108v121h108v-121zM172 0h-108v121h108v-121z" />
    <glyph glyph-name="semicolon" unicode=";" horiz-adv-x="237" 
d="M172 386h-108v122h108v-122zM109 0h-45v121h108v-81q0 -61 -22.5 -102.5t-71.5 -76.5l-25 25q27 26 41.5 55.5t14.5 58.5z" />
    <glyph glyph-name="less" unicode="&#x3c;" horiz-adv-x="571" 
d="M526 515l-380 -173l380 -175v-91l-482 226v79l482 225v-91z" />
    <glyph glyph-name="equal" unicode="=" horiz-adv-x="571" 
d="M526 396h-482v75h482v-75zM526 215h-482v76h482v-76z" />
    <glyph glyph-name="greater" unicode="&#x3e;" horiz-adv-x="571" 
d="M526 381v-79l-482 -226v91l380 175l-380 173v91z" />
    <glyph glyph-name="question" unicode="?" horiz-adv-x="470" 
d="M243 335l-11 -124h-73l-11 175l62 19q68 19 94 45t26 68q0 41 -29.5 66t-78.5 25q-36 0 -74.5 -16t-72.5 -44l-46 75q54 42 101 59t102 17q86 0 141.5 -47.5t55.5 -122.5q0 -68 -38 -114.5t-114 -70.5zM248 0h-109v121h109v-121z" />
    <glyph glyph-name="at" unicode="@" horiz-adv-x="984" 
d="M123 220q0 -165 107.5 -259.5t289.5 -94.5q58 0 114 10.5t118 33.5l21 -62q-51 -24 -118 -38t-136 -14q-214 0 -344.5 116.5t-130.5 309.5q0 191 125 311.5t325 120.5q194 0 320 -110.5t126 -279.5q0 -119 -58 -196.5t-139 -77.5q-47 0 -78 19.5t-49 60.5
q-30 -38 -71.5 -59t-90.5 -21q-91 0 -147 64t-56 164q0 98 60 163.5t149 65.5q43 0 79.5 -17t66.5 -52v64h88v-305q0 -36 17.5 -58t47.5 -22q45 0 73.5 57t28.5 145q0 143 -103.5 234t-261.5 91q-169 0 -271 -100t-102 -264zM344 219q0 -66 37.5 -109t95.5 -43q41 0 76.5 20
t52.5 54v154q-18 34 -53 54t-74 20q-59 0 -97 -42t-38 -108z" />
    <glyph glyph-name="A" unicode="A" horiz-adv-x="709" 
d="M351 584l-137 -344h275zM11 0l282 690h122l282 -690h-112l-62 154h-344l-61 -154h-107z" />
    <glyph glyph-name="B" unicode="B" horiz-adv-x="661" 
d="M361 0h-278v690h270q102 0 164.5 -49.5t62.5 -129.5q0 -53 -28 -93t-78 -57q63 -14 99 -58.5t36 -108.5q0 -88 -68 -141t-180 -53zM360 398q51 0 83 28.5t32 75.5t-34 74t-93 27h-162v-205h174zM371 315h-185v-229h172q69 0 106 30t37 85q0 52 -35 83t-95 31z" />
    <glyph glyph-name="C" unicode="C" horiz-adv-x="652" 
d="M151 346q0 -120 69.5 -191t186.5 -71q54 0 104 12.5t99 38.5v-98q-45 -24 -95.5 -35.5t-113.5 -11.5q-157 0 -257 99.5t-100 255.5q0 155 101 255t257 100q58 0 109 -13t88 -38v-98q-42 27 -91.5 40.5t-103.5 13.5q-115 0 -184 -71t-69 -188z" />
    <glyph glyph-name="D" unicode="D" horiz-adv-x="727" 
d="M83 0v690h255q150 0 247.5 -97t97.5 -246q0 -153 -98 -250t-252 -97h-250zM334 598h-148v-507h148q111 0 176.5 69t65.5 186q0 114 -66 183t-176 69z" />
    <glyph glyph-name="E" unicode="E" horiz-adv-x="590" 
d="M83 690h458v-92h-355v-200h262v-92h-262v-215h355v-91h-458v690z" />
    <glyph glyph-name="F" unicode="F" horiz-adv-x="577" 
d="M83 690h458v-92h-355v-207h262v-92h-262v-299h-103v690z" />
    <glyph glyph-name="G" unicode="G" horiz-adv-x="729" 
d="M404 362h269v-284q-47 -42 -119 -65t-151 -23q-159 0 -259 99t-100 255t100.5 256t257.5 100q57 0 108 -11t88 -32v-99q-43 23 -92 35t-102 12q-115 0 -184 -70.5t-69 -189.5t70.5 -190t188.5 -71q52 0 94 12t71 35v145h-171v86z" />
    <glyph glyph-name="H" unicode="H" horiz-adv-x="753" 
d="M83 0v690h103v-304h380v304h104v-690h-104v294h-380v-294h-103z" />
    <glyph glyph-name="I" unicode="I" horiz-adv-x="269" 
d="M83 0v690h103v-690h-103z" />
    <glyph glyph-name="J" unicode="J" horiz-adv-x="451" 
d="M373 230q0 -111 -62 -175.5t-167 -64.5q-25 0 -55.5 4.5t-50.5 11.5v92q22 -7 47 -10.5t54 -3.5q64 0 97 36.5t33 107.5v462h104v-460z" />
    <glyph glyph-name="K" unicode="K" horiz-adv-x="662" 
d="M186 0h-103v690h103v-366l312 366h115l-269 -314l301 -376h-126l-241 299l-92 -106v-193z" />
    <glyph glyph-name="L" unicode="L" horiz-adv-x="591" 
d="M83 0v690h103v-599h360v-91h-463z" />
    <glyph glyph-name="M" unicode="M" horiz-adv-x="864" 
d="M181 690l253 -388l249 388h98v-690h-103v515l-202 -317h-84l-206 311v-509h-103v690h98z" />
    <glyph glyph-name="N" unicode="N" horiz-adv-x="745" 
d="M663 690v-690h-98l-379 517v-517h-103v690h97l379 -524v524h104z" />
    <glyph glyph-name="O" unicode="O" horiz-adv-x="796" 
d="M749 345q0 -154 -100 -254.5t-252 -100.5t-251.5 100.5t-99.5 253.5q0 154 100 255t252 101t251.5 -101t99.5 -254zM153 345q0 -117 67.5 -189t177.5 -72q109 0 176.5 72t67.5 189q0 116 -67.5 188t-176.5 72q-110 0 -177.5 -72t-67.5 -188z" />
    <glyph glyph-name="P" unicode="P" horiz-adv-x="645" 
d="M83 0v690h269q108 0 177.5 -63t69.5 -160t-70 -160.5t-177 -63.5h-166v-243h-103zM352 598h-166v-263h166q65 0 102.5 36t37.5 97q0 59 -38 94.5t-102 35.5z" />
    <glyph glyph-name="Q" unicode="Q" horiz-adv-x="796" 
d="M398 605q-110 0 -177.5 -72t-67.5 -188q0 -117 67.5 -189t177.5 -72q109 0 176.5 72t67.5 189q0 116 -67.5 188t-176.5 72zM718 -148q-108 -7 -214 12t-199 61l27 70q-126 21 -206 117t-80 232q0 154 100 255t252 101t251.5 -101t99.5 -254q0 -154 -100 -254.5
t-252 -100.5h-4.5h-5.5q80 -33 165 -44.5t192 -5.5z" />
    <glyph glyph-name="R" unicode="R" horiz-adv-x="653" 
d="M351 598h-165v-225h165q61 0 98 31.5t37 82.5q0 50 -37 80.5t-98 30.5zM83 0v690h268q105 0 174 -56.5t69 -143.5q0 -70 -42.5 -121.5t-111.5 -71.5l185 -297h-121l-168 284h-150v-284h-103z" />
    <glyph glyph-name="S" unicode="S" horiz-adv-x="590" 
d="M552 189q0 -91 -75 -145t-197 -54q-69 0 -129.5 15t-104.5 43v102q58 -35 118.5 -52t123.5 -17q74 0 115 26.5t41 74.5q0 41 -35 68.5t-135 59.5q-121 39 -173.5 86.5t-52.5 115.5q0 84 71 136t187 52q58 0 107.5 -10.5t91.5 -32.5v-96q-48 23 -100.5 35t-103.5 12
q-68 0 -107 -24t-39 -66q0 -36 33.5 -60t145.5 -62q120 -40 169 -86.5t49 -120.5z" />
    <glyph glyph-name="T" unicode="T" horiz-adv-x="604" 
d="M250 0v598h-226v92h556v-92h-226v-598h-104z" />
    <glyph glyph-name="U" unicode="U" horiz-adv-x="724" 
d="M361 84q84 0 132.5 48.5t48.5 131.5v426h104v-428q0 -123 -78 -197.5t-207 -74.5q-128 0 -205.5 76t-77.5 200v424h103v-426q0 -83 48.5 -131.5t131.5 -48.5z" />
    <glyph glyph-name="V" unicode="V" horiz-adv-x="719" 
d="M362 107l240 583h108l-291 -690h-121l-289 690h114z" />
    <glyph glyph-name="W" unicode="W" horiz-adv-x="1013" 
d="M562 563l151 -452l187 579h104l-230 -690h-120l-148 436l-153 -436h-114l-230 690h110l185 -579l158 452h100z" />
    <glyph glyph-name="X" unicode="X" horiz-adv-x="660" 
d="M123 0h-110l255 346l-253 344h121l199 -270l199 270h111l-254 -346l253 -344h-121l-198 269z" />
    <glyph glyph-name="Y" unicode="Y" horiz-adv-x="668" 
d="M386 0h-104v282l-271 408h110l210 -317l211 317h115l-271 -408v-282z" />
    <glyph glyph-name="Z" unicode="Z" horiz-adv-x="600" 
d="M561 91v-91h-522v83l385 508h-378v92h510v-84l-387 -508h392z" />
    <glyph glyph-name="bracketleft" unicode="[" horiz-adv-x="363" 
d="M320 740v-76h-155v-712h155v-75h-245v863h245z" />
    <glyph glyph-name="backslash" unicode="\" horiz-adv-x="406" 
d="M294 0l-275 695h92l276 -695h-93z" />
    <glyph glyph-name="bracketright" unicode="]" horiz-adv-x="363" 
d="M42 664v76h245v-863h-245v75h155v712h-155z" />
    <glyph glyph-name="asciicircum" unicode="^" horiz-adv-x="571" 
d="M289 592l-149 -342h-87l198 440h75l199 -440h-87z" />
    <glyph glyph-name="underscore" unicode="_" horiz-adv-x="495" 
d="M472 -42v-75h-450v75h450z" />
    <glyph glyph-name="grave" unicode="`" 
d="M243 588l-123 137h109l101 -137h-87z" />
    <glyph glyph-name="a" unicode="a" horiz-adv-x="584" 
d="M144 168q0 -48 33.5 -77t88.5 -29q44 0 81.5 22t63.5 62v73q-31 25 -69 38.5t-76 13.5q-58 0 -90 -27t-32 -76zM264 443q-42 0 -85 -12.5t-78 -34.5v83q35 21 82 32.5t99 11.5q111 0 169 -53.5t58 -155.5v-314h-98v79q-34 -43 -81.5 -66t-104.5 -23q-81 0 -133.5 49
t-52.5 124q0 77 53 125.5t139 48.5q49 0 94 -13.5t82 -39.5v26q0 67 -36 100t-107 33z" />
    <glyph glyph-name="b" unicode="b" horiz-adv-x="646" 
d="M359 523q108 0 177 -74t69 -191t-69.5 -192.5t-176.5 -75.5q-55 0 -104.5 25t-79.5 68v-83h-97v723l97 17v-314q30 46 79 71.5t105 25.5zM338 74q77 0 122.5 50t45.5 134q0 83 -45.5 132t-122.5 49q-49 0 -92.5 -27t-70.5 -75v-169q29 -45 71.5 -69.5t91.5 -24.5z" />
    <glyph glyph-name="c" unicode="c" horiz-adv-x="511" 
d="M463 392q-24 21 -61.5 34t-75.5 13q-87 0 -136.5 -49t-49.5 -134q0 -86 49 -134.5t136 -48.5q41 0 75 11.5t70 37.5v-86q-31 -22 -72.5 -34t-91.5 -12q-119 0 -192 73.5t-73 192.5t73.5 193t194.5 74q50 0 89 -10.5t65 -31.5v-89z" />
    <glyph glyph-name="d" unicode="d" horiz-adv-x="646" 
d="M308 74q49 0 91.5 26t70.5 73v169q-27 46 -69.5 71.5t-92.5 25.5q-77 0 -122.5 -49t-45.5 -132q0 -84 45.5 -134t122.5 -50zM568 0h-98v89q-33 -48 -79.5 -73.5t-103.5 -25.5q-107 0 -176.5 75.5t-69.5 192.5t69 191t177 74q56 0 103.5 -23t79.5 -66v289l98 17v-740z" />
    <glyph glyph-name="e" unicode="e" horiz-adv-x="573" 
d="M327 -10q-127 0 -206.5 75.5t-79.5 196.5q0 115 73 188t187 73q103 0 168.5 -66t66.5 -170q0 -17 -1 -33t-3 -25h-392q10 -74 60 -116.5t129 -42.5q44 0 88.5 12.5t75.5 33.5v-82q-29 -20 -73.5 -32t-92.5 -12zM298 445q-63 0 -106 -40t-52 -108h302q0 67 -40 107.5
t-104 40.5z" />
    <glyph glyph-name="f" unicode="f" horiz-adv-x="350" 
d="M183 513h134v-77h-134v-436h-98v435h-76v78h76v25q0 96 46.5 149t129.5 53q26 0 47.5 -5.5t38.5 -15.5v-83q-14 9 -32.5 13.5t-37.5 4.5q-47 0 -70.5 -28.5t-23.5 -85.5v-27z" />
    <glyph glyph-name="g" unicode="g" horiz-adv-x="646" 
d="M308 74q48 0 89.5 25.5t72.5 72.5v172q-27 44 -70 69.5t-92 25.5q-77 0 -122.5 -49t-45.5 -132q0 -84 45.5 -134t122.5 -50zM301 -131q79 0 124 42t45 116v63q-32 -49 -79 -74.5t-105 -25.5q-108 0 -176.5 74.5t-68.5 193.5q0 117 69 191t177 74q57 0 105.5 -24t77.5 -66
v80h98v-473q0 -118 -70 -186t-189 -68q-32 0 -62.5 5.5t-51.5 15.5v83q23 -10 51.5 -15.5t54.5 -5.5z" />
    <glyph glyph-name="h" unicode="h" horiz-adv-x="619" 
d="M78 0v723l97 17v-313q30 45 79 70.5t106 25.5q92 0 139 -50t47 -147v-326h-98v316q0 60 -30.5 90.5t-89.5 30.5q-46 0 -87 -24.5t-66 -65.5v-347h-97z" />
    <glyph glyph-name="i" unicode="i" horiz-adv-x="253" 
d="M78 594v133h97v-133h-97zM78 0v513h97v-513h-97z" />
    <glyph glyph-name="j" unicode="j" horiz-adv-x="261" 
d="M183 727v-133h-98v133h98zM-21 -129q15 -1 20.5 -1.5t10.5 -0.5q38 0 56.5 23t18.5 69v552h98v-547q0 -87 -37.5 -133.5t-108.5 -46.5q-14 0 -28.5 2t-29.5 5v78z" />
    <glyph glyph-name="k" unicode="k" horiz-adv-x="563" 
d="M175 0h-97v723l97 17v-478l235 251h112l-216 -225l241 -288h-119l-186 220l-67 -69v-151z" />
    <glyph glyph-name="l" unicode="l" horiz-adv-x="253" 
d="M78 723l97 17v-740h-97v723z" />
    <glyph glyph-name="m" unicode="m" horiz-adv-x="953" 
d="M430 332q0 47 -30 76t-81 29q-41 0 -78.5 -24t-65.5 -67v-346h-97v513h92v-93q34 51 80 77t102 26q62 0 105.5 -28t58.5 -77q30 50 78.5 77.5t107.5 27.5q85 0 131.5 -48.5t46.5 -136.5v-338h-98v328q0 51 -30 80t-82 29q-42 0 -80 -25.5t-62 -67.5v-344h-98v332z" />
    <glyph glyph-name="n" unicode="n" horiz-adv-x="619" 
d="M78 0v513h92v-93q31 48 80.5 75.5t109.5 27.5q92 0 139 -50t47 -147v-326h-98v316q0 60 -30.5 90.5t-89.5 30.5q-46 0 -87 -24.5t-66 -66.5v-346h-97z" />
    <glyph glyph-name="o" unicode="o" horiz-adv-x="621" 
d="M41 256q0 115 76.5 191t192.5 76t193 -75.5t77 -191.5q0 -115 -77 -190.5t-193 -75.5q-115 0 -192 75.5t-77 190.5zM140 256q0 -82 47.5 -133t122.5 -51t122.5 51t47.5 133t-47 133t-123 51t-123 -51t-47 -133z" />
    <glyph glyph-name="p" unicode="p" horiz-adv-x="646" 
d="M338 74q77 0 122.5 50t45.5 134q0 83 -45.5 132t-122.5 49q-49 0 -91.5 -26.5t-71.5 -73.5v-173q30 -44 72.5 -68t90.5 -24zM605 258q0 -117 -69.5 -192.5t-176.5 -75.5q-55 0 -103.5 24t-80.5 68v-282h-97v713h97v-85q35 47 82 71t102 24q108 0 177 -74t69 -191z" />
    <glyph glyph-name="q" unicode="q" horiz-adv-x="646" 
d="M568 -197h-98v286q-26 -46 -75 -72.5t-108 -26.5q-107 0 -176.5 75.5t-69.5 192.5t69 191t177 74q56 0 103 -23t80 -66v81h98v-712zM308 74q48 0 90.5 25.5t71.5 71.5v174q-28 44 -70.5 69t-91.5 25q-77 0 -122.5 -49t-45.5 -132q0 -84 45.5 -134t122.5 -50z" />
    <glyph glyph-name="r" unicode="r" horiz-adv-x="384" 
d="M175 421q17 48 52 75t78 27q14 0 28 -3t27 -9v-93q-12 6 -29.5 9.5t-34.5 3.5q-39 0 -70.5 -23.5t-50.5 -65.5v-342h-97v513h97v-92z" />
    <glyph glyph-name="s" unicode="s" horiz-adv-x="474" 
d="M407 401q-34 19 -74.5 30t-81.5 11q-53 0 -82 -17t-29 -48q0 -24 22.5 -39t105.5 -38q98 -28 135.5 -62.5t37.5 -92.5q0 -74 -56 -114.5t-152 -40.5q-55 0 -101.5 11t-80.5 32v88q36 -24 84.5 -37.5t101.5 -13.5q51 0 79 17.5t28 51.5q0 28 -25.5 45.5t-115.5 43.5
q-87 26 -123 59t-36 86q0 68 56 109t148 41q45 0 85 -9t74 -26v-87z" />
    <glyph glyph-name="t" unicode="t" horiz-adv-x="358" 
d="M257 78q14 0 29 2.5t33 8.5v-86q-22 -6 -43 -9.5t-37 -3.5q-79 0 -116.5 39t-37.5 121v285h-76v78h76v115l98 16v-131h134v-77h-134v-273q0 -43 17.5 -64t56.5 -21z" />
    <glyph glyph-name="u" unicode="u" horiz-adv-x="604" 
d="M526 513v-513h-92v94q-32 -51 -78 -77.5t-102 -26.5q-89 0 -135 49t-46 143v331h97v-319q0 -60 29 -89.5t87 -29.5q42 0 79.5 24.5t62.5 68.5v345h98z" />
    <glyph glyph-name="v" unicode="v" horiz-adv-x="557" 
d="M450 513h95l-219 -513h-102l-213 513h103l165 -418z" />
    <glyph glyph-name="w" unicode="w" horiz-adv-x="843" 
d="M743 513h89l-182 -513h-110l-123 379l-121 -379h-102l-183 513h103l139 -416l131 416h85l133 -416z" />
    <glyph glyph-name="x" unicode="x" horiz-adv-x="523" 
d="M111 0h-100l196 263l-186 250h111l136 -183l137 183h99l-185 -251l194 -262h-111l-145 195z" />
    <glyph glyph-name="y" unicode="y" horiz-adv-x="561" 
d="M90 -214q-12 0 -24 2t-22 5v81q10 -2 20 -3.5t20 -1.5q46 0 85 32.5t69 96.5l-226 515h99l173 -406l167 406h98l-211 -491q-55 -127 -113.5 -181.5t-134.5 -54.5z" />
    <glyph glyph-name="z" unicode="z" horiz-adv-x="491" 
d="M454 444l-296 -364h298v-80h-421v68l295 364h-289v81h413v-69z" />
    <glyph glyph-name="braceleft" unicode="{" horiz-adv-x="391" 
d="M131 475q-17 35 -22.5 55.5t-5.5 42.5q0 80 63 123.5t181 43.5v-72q-75 0 -112.5 -24t-37.5 -73q0 -16 3.5 -32.5t15.5 -45.5q13 -31 17 -50t4 -39q0 -29 -14.5 -56.5t-35.5 -40.5q21 -13 35.5 -40.5t14.5 -56.5q0 -20 -4 -38.5t-17 -50.5q-12 -29 -15.5 -45.5
t-3.5 -32.5q0 -48 37.5 -72t112.5 -24v-72q-118 0 -181 43.5t-63 123.5q0 22 5.5 43t22.5 55q13 26 17 40t4 27q0 30 -15.5 47t-41.5 17h-39v72h39q26 0 41.5 17t15.5 47q0 13 -4 27t-17 41z" />
    <glyph glyph-name="bar" unicode="|" horiz-adv-x="241" 
d="M80 -80v850h81v-850h-81z" />
    <glyph glyph-name="braceright" unicode="}" horiz-adv-x="391" 
d="M287 573q0 -22 -5.5 -42.5t-21.5 -55.5q-13 -27 -17 -41t-4 -27q0 -30 15.5 -47t40.5 -17h39v-72h-39q-26 0 -41 -17t-15 -47q0 -13 4 -27t17 -40q16 -34 21.5 -55t5.5 -43q0 -80 -62.5 -123.5t-180.5 -43.5v72q75 0 112.5 24t37.5 72q0 16 -3.5 32.5t-16.5 45.5
q-13 32 -17 50.5t-4 38.5q0 28 14.5 56t35.5 42q-21 13 -35.5 40t-14.5 56q0 20 4 39t18 50q12 29 15.5 45.5t3.5 32.5q0 49 -37.5 73t-112.5 24v72q118 0 180.5 -43.5t62.5 -123.5z" />
    <glyph glyph-name="asciitilde" unicode="~" horiz-adv-x="571" 
d="M158 334q-21 0 -42.5 -4t-71.5 -22v77q36 15 61 20t53 5q21 0 46 -4t76 -18q53 -14 79.5 -18.5t49.5 -4.5q29 0 59 8t58 24v-76q-38 -19 -64 -25.5t-56 -6.5q-24 0 -50.5 4.5t-77.5 18.5q-49 14 -73.5 18t-46.5 4z" />
    <glyph glyph-name="uni00A0" unicode="&#xa0;" horiz-adv-x="242" 
 />
    <glyph glyph-name="exclamdown" unicode="&#xa1;" horiz-adv-x="290" 
d="M88 513h108v-122h-108v122zM111 304h66l27 -233v-247h-119v247z" />
    <glyph glyph-name="cent" unicode="&#xa2;" horiz-adv-x="520" 
d="M328 73q41 0 74 11t70 38v-86q-27 -20 -63.5 -31.5t-80.5 -14.5v-72h-68v76q-99 15 -157.5 86t-58.5 176t58.5 176t157.5 87v83h68v-79q44 -2 79 -13.5t58 -30.5v-87q-25 22 -60.5 34.5t-76.5 12.5v-366zM260 429q-56 -17 -86.5 -62t-30.5 -111t30.5 -111.5t86.5 -62.5
v347z" />
    <glyph glyph-name="sterling" unicode="&#xa3;" horiz-adv-x="548" 
d="M55 0v91h18q60 0 92.5 31.5t32.5 86.5q0 22 -5.5 44t-23.5 55h-116v63h79q-25 43 -33 71.5t-8 57.5q0 89 65 144.5t166 55.5q44 0 76 -7t58 -22v-94q-26 14 -55.5 21t-64.5 7q-63 0 -100.5 -30.5t-37.5 -82.5q0 -25 8.5 -50.5t37.5 -70.5h179v-63h-143q11 -24 15 -43
t4 -39q0 -44 -23 -79t-65 -56h298v-91h-454z" />
    <glyph glyph-name="currency" unicode="&#xa4;" horiz-adv-x="600" 
d="M510 110l-83 83q-26 -18 -58 -28t-69 -10t-69 10t-58 28l-82 -83l-44 43l84 83q-19 26 -29 58.5t-10 69.5q0 36 9.5 68t27.5 57l-82 83l42 43l82 -82q26 19 59 29.5t71 10.5q37 0 69 -10.5t58 -28.5l81 81l43 -43l-81 -81q19 -26 29 -58t10 -69q0 -38 -10.5 -70.5
t-29.5 -58.5l83 -82zM299 230q61 0 99 37t38 97q0 59 -37.5 96.5t-97.5 38.5q-60 0 -97.5 -37.5t-37.5 -97.5t37 -97t96 -37z" />
    <glyph glyph-name="yen" unicode="&#xa5;" horiz-adv-x="684" 
d="M290 0v176h-202v62h202v44l-15 23h-187v63h145l-214 322h115l208 -322l208 322h115l-215 -322h139v-63h-181l-15 -23v-44h196v-62h-196v-176h-103z" />
    <glyph glyph-name="brokenbar" unicode="&#xa6;" horiz-adv-x="241" 
d="M80 394v376h81v-376h-81zM80 -80v376h81v-376h-81z" />
    <glyph glyph-name="section" unicode="&#xa7;" horiz-adv-x="499" 
d="M178 441q-22 -11 -34 -28.5t-12 -37.5q0 -32 28 -51.5t119 -46.5q9 -2 19.5 -5.5t22.5 -8.5q22 11 34 28.5t12 37.5q0 31 -27 50.5t-120 47.5q-9 2 -19.5 5.5t-22.5 8.5zM383 234q29 -19 43 -42.5t14 -53.5q0 -68 -56 -108t-148 -40q-45 0 -85 8.5t-74 24.5v88
q33 -20 74 -31t83 -11q53 0 80.5 17t27.5 49q0 23 -19 36.5t-107 39.5q-98 28 -135 60.5t-37 85.5q0 35 18 63.5t54 49.5q-30 19 -44 42t-14 53q0 68 56 109t148 41q46 0 86 -9t73 -26v-87q-34 19 -74.5 30t-81.5 11q-53 0 -80.5 -17t-27.5 -49q0 -23 20.5 -36.5
t104.5 -38.5q99 -29 136 -61t37 -85q0 -36 -18.5 -64.5t-53.5 -48.5z" />
    <glyph glyph-name="dieresis" unicode="&#xa8;" 
d="M379 727v-133h-84v133h84zM204 727v-133h-84v133h84z" />
    <glyph glyph-name="copyright" unicode="&#xa9;" horiz-adv-x="794" 
d="M38 345q0 147 105.5 251t253.5 104t253.5 -104.5t105.5 -250.5q0 -147 -105.5 -251t-253.5 -104t-253.5 104t-105.5 251zM690 345q0 123 -84.5 208t-208.5 85q-126 0 -209.5 -84.5t-83.5 -208.5q0 -125 83.5 -209.5t209.5 -84.5q123 0 208 85.5t85 208.5zM226 347
q0 77 54 129.5t133 52.5q28 0 49.5 -5t39.5 -16v-60q-21 11 -40 16t-45 5q-57 0 -90.5 -33t-33.5 -89q0 -58 34 -91t94 -33q26 0 44.5 4t36.5 13v-56q-23 -12 -42 -15.5t-44 -3.5q-84 0 -137 50.5t-53 131.5z" />
    <glyph glyph-name="ordfeminine" unicode="&#xaa;" horiz-adv-x="398" 
d="M187 435q26 0 48 13t36 36v41q-16 13 -37.5 20t-45.5 7q-32 0 -51.5 -16t-19.5 -43q0 -26 20 -42t50 -16zM186 649q-25 0 -49 -7t-48 -22v52q23 14 50.5 21t57.5 7q67 0 102 -31.5t35 -91.5v-185h-62v52q-18 -27 -47 -42t-63 -15q-47 0 -79 29t-32 73t32.5 73t84.5 29
q28 0 52.5 -7.5t49.5 -23.5v14q0 38 -21 56.5t-63 18.5zM361 321v-59h-325v59h325z" />
    <glyph glyph-name="guillemotleft" unicode="&#xab;" horiz-adv-x="609" 
d="M547 71l-38 -38l-217 192v49l217 192l38 -39l-163 -178zM304 71l-38 -38l-217 192v49l217 192l38 -39l-163 -178z" />
    <glyph glyph-name="logicalnot" unicode="&#xac;" horiz-adv-x="571" 
d="M445 304h-401v76h482v-293h-81v217z" />
    <glyph glyph-name="uni00AD" unicode="&#xad;" horiz-adv-x="418" 
 />
    <glyph glyph-name="registered" unicode="&#xae;" horiz-adv-x="520" 
d="M37 481q0 91 65 155t158 64q92 0 157.5 -64t65.5 -155q0 -92 -65 -156t-158 -64t-158 64t-65 156zM435 481q0 76 -49.5 125.5t-125.5 49.5q-77 0 -126.5 -49.5t-49.5 -125.5q0 -77 49.5 -127t126.5 -50q76 0 125.5 50t49.5 127zM308 524q0 14 -10.5 22.5t-27.5 8.5h-50
v-63h50q18 0 28 8t10 24zM299 464l57 -87h-47l-50 82h-39v-82h-39v213h89q37 0 58 -17.5t21 -47.5q0 -23 -13 -39t-37 -22z" />
    <glyph glyph-name="macron" unicode="&#xaf;" 
d="M401 695v-76h-303v76h303z" />
    <glyph glyph-name="degree" unicode="&#xb0;" horiz-adv-x="340" 
d="M169 700q61 0 101 -40t40 -101q0 -60 -40 -99t-101 -39t-100.5 39t-39.5 99q0 61 40 101t100 40zM169 478q34 0 57 23.5t23 57.5q0 35 -23 59t-57 24q-33 0 -56 -24t-23 -59q0 -34 23 -57.5t56 -23.5z" />
    <glyph glyph-name="plusminus" unicode="&#xb1;" horiz-adv-x="571" 
d="M243 620h81v-198h202v-75h-202v-200h-81v200h-199v75h199v198zM526 0h-482v75h482v-75z" />
    <glyph glyph-name="twosuperior" unicode="&#xb2;" horiz-adv-x="411" 
d="M251 584q0 21 -17 34t-47 13q-27 0 -51.5 -7.5t-48.5 -23.5v74q28 13 56 19.5t57 6.5q55 0 91 -29.5t36 -75.5q0 -31 -16 -58t-55 -59l-59 -49q-19 -15 -29 -28.5t-11 -24.5h177v-68h-265v26q0 37 16 67.5t48 56.5l63 50q34 27 44.5 42t10.5 34z" />
    <glyph glyph-name="threesuperior" unicode="&#xb3;" horiz-adv-x="411" 
d="M186 373q39 0 60 14t21 40q0 25 -19 38.5t-53 13.5h-56v51h57q33 0 51 13t18 38q0 22 -19 34.5t-52 12.5q-27 0 -55.5 -7.5t-51.5 -21.5v71q23 15 51.5 22.5t60.5 7.5q59 0 99 -30.5t40 -76.5q0 -31 -17.5 -54.5t-47.5 -33.5q33 -10 51.5 -33.5t18.5 -55.5q0 -49 -43 -81
t-107 -32q-32 0 -59.5 6t-49.5 18v71q27 -13 51.5 -19t50.5 -6z" />
    <glyph glyph-name="acute" unicode="&#xb4;" 
d="M369 725l-123 -137h-88l102 137h109z" />
    <glyph glyph-name="mu" unicode="&#xb5;" horiz-adv-x="679" 
d="M560 -10q-50 0 -81 26t-40 76q-33 -45 -84.5 -73.5t-105.5 -28.5q-18 0 -39.5 5.5t-35.5 12.5v-208h-96v712h102v-325q0 -56 25.5 -82t81.5 -26q46 0 87 24.5t61 60.5v349h100v-373q0 -32 12.5 -49t35.5 -17q14 0 26 5t21 15l37 -65q-22 -19 -48.5 -29t-58.5 -10z" />
    <glyph glyph-name="paragraph" unicode="&#xb6;" horiz-adv-x="513" 
d="M261 0v306h-26q-83 0 -134.5 53.5t-51.5 139.5q0 84 51.5 137.5t134.5 53.5h200v-690h-57v629h-60v-629h-57z" />
    <glyph glyph-name="periodcentered" unicode="&#xb7;" 
d="M241 239h-109v122h109v-122z" />
    <glyph glyph-name="cedilla" unicode="&#xb8;" 
d="M251 -53q43 0 67.5 -19t24.5 -52q0 -38 -30.5 -61.5t-81.5 -23.5q-27 0 -47.5 4t-42.5 14v50q26 -11 44.5 -15.5t38.5 -4.5q25 0 39 8.5t14 25.5q0 16 -12.5 24.5t-36.5 8.5h-48l23 117l40 -16l-13 -60h21z" />
    <glyph glyph-name="onesuperior" unicode="&#xb9;" horiz-adv-x="411" 
d="M123 583v71l71 38h71v-388h-76v310z" />
    <glyph glyph-name="ordmasculine" unicode="&#xba;" horiz-adv-x="398" 
d="M355 542q0 -69 -43 -112t-113 -43t-113 43t-43 112q0 70 43.5 114t112.5 44t112.5 -44t43.5 -114zM288 543q0 45 -24 71.5t-65 26.5t-65.5 -26.5t-24.5 -71.5q0 -44 24.5 -70.5t65.5 -26.5t65 26.5t24 70.5zM361 321v-59h-325v59h325z" />
    <glyph glyph-name="guillemotright" unicode="&#xbb;" horiz-adv-x="609" 
d="M304 427l39 39l216 -192v-49l-216 -192l-39 38l164 178zM61 427l39 39l216 -192v-49l-216 -192l-39 38l164 178z" />
    <glyph glyph-name="onequarter" unicode="&#xbc;" horiz-adv-x="924" 
d="M123 583v71l71 38h71v-388h-76v310zM698 690l-388 -690h-78l392 690h74zM564 129l143 258h77l-142 -256h120v73l72 40v-113h50v-64h-50v-66h-71v66h-199v62z" />
    <glyph glyph-name="onehalf" unicode="&#xbd;" horiz-adv-x="924" 
d="M123 583v71l71 38h71v-388h-76v310zM683 690l-388 -690h-78l392 690h74zM764 280q0 21 -17 34t-47 13q-27 0 -51.5 -7.5t-48.5 -23.5v74q28 13 56 19.5t57 6.5q55 0 91 -29.5t36 -75.5q0 -31 -16 -58t-55 -59l-59 -49q-19 -15 -29 -28.5t-11 -24.5h177v-68h-265v26
q0 37 16 67.5t48 56.5l63 50q34 27 44.5 42t10.5 34z" />
    <glyph glyph-name="threequarters" unicode="&#xbe;" horiz-adv-x="924" 
d="M186 373q39 0 60 14t21 40q0 25 -19 38.5t-53 13.5h-56v51h57q33 0 51 13t18 38q0 22 -19 34.5t-52 12.5q-27 0 -55.5 -7.5t-51.5 -21.5v71q23 15 51.5 22.5t60.5 7.5q59 0 99 -30.5t40 -76.5q0 -31 -17.5 -54.5t-47.5 -33.5q33 -10 51.5 -33.5t18.5 -55.5q0 -49 -43 -81
t-107 -32q-32 0 -59.5 6t-49.5 18v71q27 -13 51.5 -19t50.5 -6zM708 690l-388 -690h-78l392 690h74zM564 129l143 258h77l-142 -256h120v73l72 40v-113h50v-64h-50v-66h-71v66h-199v62z" />
    <glyph glyph-name="questiondown" unicode="&#xbf;" horiz-adv-x="470" 
d="M221 513h108v-122h-108v122zM225 177l11 124h74l11 -175l-62 -18q-67 -19 -93.5 -45t-26.5 -68q0 -41 29.5 -66t78.5 -25q37 0 75.5 16t71.5 45l46 -76q-53 -42 -100 -58.5t-103 -16.5q-86 0 -141.5 47t-55.5 122q0 68 38.5 114.5t113.5 69.5z" />
    <glyph glyph-name="Agrave" unicode="&#xc0;" horiz-adv-x="709" 
d="M351 584l-137 -344h275zM11 0l282 690h122l282 -690h-112l-62 154h-344l-61 -154h-107zM329 764l-123 137h109l101 -137h-87z" />
    <glyph glyph-name="Aacute" unicode="&#xc1;" horiz-adv-x="709" 
d="M351 584l-137 -344h275zM11 0l282 690h122l282 -690h-112l-62 154h-344l-61 -154h-107zM491 901l-123 -137h-88l102 137h109z" />
    <glyph glyph-name="Acircumflex" unicode="&#xc2;" horiz-adv-x="709" 
d="M351 584l-137 -344h275zM11 0l282 690h122l282 -690h-112l-62 154h-344l-61 -154h-107zM404 901l114 -137h-82l-85 90l-86 -90h-76l113 137h102z" />
    <glyph glyph-name="Atilde" unicode="&#xc3;" horiz-adv-x="709" 
d="M351 584l-137 -344h275zM11 0l282 690h122l282 -690h-112l-62 154h-344l-61 -154h-107zM277 899q21 0 40.5 -7.5t50.5 -30.5q23 -18 35.5 -23.5t24.5 -5.5q20 0 32.5 17t14.5 47h63q-1 -54 -31 -90.5t-76 -36.5q-23 0 -43 8t-51 32q-21 17 -31.5 22t-20.5 5
q-21 0 -34.5 -17.5t-16.5 -48.5h-63q2 60 30 94.5t76 34.5z" />
    <glyph glyph-name="Adieresis" unicode="&#xc4;" horiz-adv-x="709" 
d="M351 584l-137 -344h275zM11 0l282 690h122l282 -690h-112l-62 154h-344l-61 -154h-107zM483 903v-133h-84v133h84zM308 903v-133h-84v133h84z" />
    <glyph glyph-name="Aring" unicode="&#xc5;" horiz-adv-x="709" 
d="M351 584l-137 -344h275zM11 0l282 690h122l282 -690h-112l-62 154h-344l-61 -154h-107zM354 745q-46 0 -77 30t-31 75q0 46 30.5 75.5t77.5 29.5q46 0 76.5 -30.5t30.5 -74.5q0 -45 -30.5 -75t-76.5 -30zM354 903q-23 0 -37.5 -14.5t-14.5 -37.5q0 -24 14.5 -39t37.5 -15
t37.5 15t14.5 39q0 23 -14.5 37.5t-37.5 14.5z" />
    <glyph glyph-name="AE" unicode="&#xc6;" horiz-adv-x="971" 
d="M464 597l-207 -356h207v356zM922 91v-91h-458v154h-254l-90 -154h-111l399 690h514v-92h-355v-200h262v-92h-262v-215h355z" />
    <glyph glyph-name="Ccedilla" unicode="&#xc7;" horiz-adv-x="652" 
d="M372 -209q-27 0 -47.5 4t-42.5 14v50q26 -11 44.5 -15.5t38.5 -4.5q25 0 39 8.5t14 25.5q0 16 -12.5 24.5t-36.5 8.5h-48l17 89q-131 19 -212.5 114.5t-81.5 235.5q0 155 101 255t257 100q58 0 109 -13t88 -38v-98q-42 27 -91.5 40.5t-103.5 13.5q-115 0 -184 -71
t-69 -188q0 -120 69.5 -191t186.5 -71q54 0 104 12.5t99 38.5v-98q-45 -24 -95.5 -35.5t-113.5 -11.5h-10.5h-10.5l-9 -43h21q43 0 67.5 -19t24.5 -52q0 -38 -30.5 -61.5t-81.5 -23.5z" />
    <glyph glyph-name="Egrave" unicode="&#xc8;" horiz-adv-x="590" 
d="M83 690h458v-92h-355v-200h262v-92h-262v-215h355v-91h-458v690zM295 764l-123 137h109l101 -137h-87z" />
    <glyph glyph-name="Eacute" unicode="&#xc9;" horiz-adv-x="590" 
d="M83 690h458v-92h-355v-200h262v-92h-262v-215h355v-91h-458v690zM443 901l-123 -137h-88l102 137h109z" />
    <glyph glyph-name="Ecircumflex" unicode="&#xca;" horiz-adv-x="590" 
d="M83 690h458v-92h-355v-200h262v-92h-262v-215h355v-91h-458v690zM360 901l114 -137h-82l-85 90l-86 -90h-76l113 137h102z" />
    <glyph glyph-name="Edieresis" unicode="&#xcb;" horiz-adv-x="590" 
d="M83 690h458v-92h-355v-200h262v-92h-262v-215h355v-91h-458v690zM437 903v-133h-84v133h84zM262 903v-133h-84v133h84z" />
    <glyph glyph-name="Igrave" unicode="&#xcc;" horiz-adv-x="269" 
d="M83 0v690h103v-690h-103zM119 764l-123 137h109l101 -137h-87z" />
    <glyph glyph-name="Iacute" unicode="&#xcd;" horiz-adv-x="269" 
d="M83 0v690h103v-690h-103zM278 901l-123 -137h-88l102 137h109z" />
    <glyph glyph-name="Icircumflex" unicode="&#xce;" horiz-adv-x="269" 
d="M83 0v690h103v-690h-103zM185 901l114 -137h-82l-85 90l-86 -90h-76l113 137h102z" />
    <glyph glyph-name="Idieresis" unicode="&#xcf;" horiz-adv-x="269" 
d="M83 0v690h103v-690h-103zM264 903v-133h-84v133h84zM89 903v-133h-84v133h84z" />
    <glyph glyph-name="Eth" unicode="&#xd0;" horiz-adv-x="730" 
d="M328 308h-139v-217h148q111 0 176 68.5t65 186.5q0 115 -65.5 183.5t-175.5 68.5h-148v-215h139v-75zM85 0v308h-71v75h71v307h255q150 0 248 -97t98 -246q0 -153 -98 -250t-253 -97h-250z" />
    <glyph glyph-name="Ntilde" unicode="&#xd1;" horiz-adv-x="746" 
d="M663 690v-690h-98l-379 517v-517h-103v690h97l379 -524v524h104zM296 899q21 0 40.5 -7.5t50.5 -30.5q23 -18 35.5 -23.5t24.5 -5.5q20 0 32.5 17t14.5 47h63q-1 -54 -31 -90.5t-76 -36.5q-23 0 -43 8t-51 32q-21 17 -31.5 22t-20.5 5q-21 0 -34.5 -17.5t-16.5 -48.5h-63
q2 60 30 94.5t76 34.5z" />
    <glyph glyph-name="Ograve" unicode="&#xd2;" horiz-adv-x="796" 
d="M749 345q0 -154 -100 -254.5t-252 -100.5t-251.5 100.5t-99.5 253.5q0 154 100 255t252 101t251.5 -101t99.5 -254zM153 345q0 -117 67.5 -189t177.5 -72q109 0 176.5 72t67.5 189q0 116 -67.5 188t-176.5 72q-110 0 -177.5 -72t-67.5 -188zM373 764l-123 137h109
l101 -137h-87z" />
    <glyph glyph-name="Oacute" unicode="&#xd3;" horiz-adv-x="796" 
d="M749 345q0 -154 -100 -254.5t-252 -100.5t-251.5 100.5t-99.5 253.5q0 154 100 255t252 101t251.5 -101t99.5 -254zM153 345q0 -117 67.5 -189t177.5 -72q109 0 176.5 72t67.5 189q0 116 -67.5 188t-176.5 72q-110 0 -177.5 -72t-67.5 -188zM535 901l-123 -137h-88
l102 137h109z" />
    <glyph glyph-name="Ocircumflex" unicode="&#xd4;" horiz-adv-x="796" 
d="M749 345q0 -154 -100 -254.5t-252 -100.5t-251.5 100.5t-99.5 253.5q0 154 100 255t252 101t251.5 -101t99.5 -254zM153 345q0 -117 67.5 -189t177.5 -72q109 0 176.5 72t67.5 189q0 116 -67.5 188t-176.5 72q-110 0 -177.5 -72t-67.5 -188zM448 901l114 -137h-82l-85 90
l-86 -90h-76l113 137h102z" />
    <glyph glyph-name="Otilde" unicode="&#xd5;" horiz-adv-x="796" 
d="M749 345q0 -154 -100 -254.5t-252 -100.5t-251.5 100.5t-99.5 253.5q0 154 100 255t252 101t251.5 -101t99.5 -254zM153 345q0 -117 67.5 -189t177.5 -72q109 0 176.5 72t67.5 189q0 116 -67.5 188t-176.5 72q-110 0 -177.5 -72t-67.5 -188zM321 899q21 0 40.5 -7.5
t50.5 -30.5q23 -18 35.5 -23.5t24.5 -5.5q20 0 32.5 17t14.5 47h63q-1 -54 -31 -90.5t-76 -36.5q-23 0 -43 8t-51 32q-21 17 -31.5 22t-20.5 5q-21 0 -34.5 -17.5t-16.5 -48.5h-63q2 60 30 94.5t76 34.5z" />
    <glyph glyph-name="Odieresis" unicode="&#xd6;" horiz-adv-x="796" 
d="M749 345q0 -154 -100 -254.5t-252 -100.5t-251.5 100.5t-99.5 253.5q0 154 100 255t252 101t251.5 -101t99.5 -254zM153 345q0 -117 67.5 -189t177.5 -72q109 0 176.5 72t67.5 189q0 116 -67.5 188t-176.5 72q-110 0 -177.5 -72t-67.5 -188zM527 903v-133h-84v133h84z
M352 903v-133h-84v133h84z" />
    <glyph glyph-name="multiply" unicode="&#xd7;" horiz-adv-x="571" 
d="M79 489l54 54l148 -149l151 151l54 -53l-151 -151l153 -153l-54 -53l-153 152l-149 -149l-54 53l150 150z" />
    <glyph glyph-name="Oslash" unicode="&#xd8;" horiz-adv-x="796" 
d="M397 -10q-65 0 -122 19.5t-102 55.5l-70 -72l-52 49l72 73q-37 45 -57 103.5t-20 125.5q0 154 100 255t252 101q65 0 122 -19.5t101 -55.5l72 74l52 -50l-73 -75q36 -45 56.5 -103.5t20.5 -125.5q0 -154 -100 -254.5t-252 -100.5zM153 345q0 -46 11 -85.5t31 -70.5
l357 366q-30 24 -69.5 37t-84.5 13q-110 0 -177.5 -72t-67.5 -188zM398 84q109 0 176.5 72t67.5 189q0 45 -11 85t-31 71l-358 -366q31 -24 70.5 -37.5t85.5 -13.5z" />
    <glyph glyph-name="Ugrave" unicode="&#xd9;" horiz-adv-x="724" 
d="M361 84q84 0 132.5 48.5t48.5 131.5v426h104v-428q0 -123 -78 -197.5t-207 -74.5q-128 0 -205.5 76t-77.5 200v424h103v-426q0 -83 48.5 -131.5t131.5 -48.5zM347 764l-123 137h109l101 -137h-87z" />
    <glyph glyph-name="Uacute" unicode="&#xda;" horiz-adv-x="724" 
d="M361 84q84 0 132.5 48.5t48.5 131.5v426h104v-428q0 -123 -78 -197.5t-207 -74.5q-128 0 -205.5 76t-77.5 200v424h103v-426q0 -83 48.5 -131.5t131.5 -48.5zM499 901l-123 -137h-88l102 137h109z" />
    <glyph glyph-name="Ucircumflex" unicode="&#xdb;" horiz-adv-x="724" 
d="M361 84q84 0 132.5 48.5t48.5 131.5v426h104v-428q0 -123 -78 -197.5t-207 -74.5q-128 0 -205.5 76t-77.5 200v424h103v-426q0 -83 48.5 -131.5t131.5 -48.5zM412 901l114 -137h-82l-85 90l-86 -90h-76l113 137h102z" />
    <glyph glyph-name="Udieresis" unicode="&#xdc;" horiz-adv-x="724" 
d="M361 84q84 0 132.5 48.5t48.5 131.5v426h104v-428q0 -123 -78 -197.5t-207 -74.5q-128 0 -205.5 76t-77.5 200v424h103v-426q0 -83 48.5 -131.5t131.5 -48.5zM491 903v-133h-84v133h84zM316 903v-133h-84v133h84z" />
    <glyph glyph-name="Yacute" unicode="&#xdd;" horiz-adv-x="668" 
d="M386 0h-104v282l-271 408h110l210 -317l211 317h115l-271 -408v-282zM475 901l-123 -137h-88l102 137h109z" />
    <glyph glyph-name="Thorn" unicode="&#xde;" horiz-adv-x="651" 
d="M83 0v690h103v-121h166q108 0 177.5 -62.5t69.5 -159.5q0 -98 -69.5 -161.5t-177.5 -63.5h-166v-122h-103zM352 477h-166v-263h166q64 0 102 36t38 98q0 59 -38 94t-102 35z" />
    <glyph glyph-name="germandbls" unicode="&#xdf;" horiz-adv-x="599" 
d="M175 0h-97v504q0 112 59 174t167 62q97 0 154.5 -51t57.5 -133q0 -57 -28 -99.5t-76 -62.5q71 -16 108.5 -66t37.5 -127q0 -93 -62 -152t-152 -59q-35 0 -65.5 6t-52.5 17v77q23 -12 45.5 -17t48.5 -5q59 0 97.5 39.5t38.5 102.5q0 65 -41.5 102.5t-110.5 37.5v75
q48 0 79.5 32t31.5 83q0 53 -31 83.5t-84 30.5q-59 0 -92 -38t-33 -107v-509z" />
    <glyph glyph-name="agrave" unicode="&#xe0;" horiz-adv-x="584" 
d="M144 168q0 -48 33.5 -77t88.5 -29q44 0 81.5 22t63.5 62v73q-31 25 -69 38.5t-76 13.5q-58 0 -90 -27t-32 -76zM264 443q-42 0 -85 -12.5t-78 -34.5v83q35 21 82 32.5t99 11.5q111 0 169 -53.5t58 -155.5v-314h-98v79q-34 -43 -81.5 -66t-104.5 -23q-81 0 -133.5 49
t-52.5 124q0 77 53 125.5t139 48.5q49 0 94 -13.5t82 -39.5v26q0 67 -36 100t-107 33zM271 588l-123 137h109l101 -137h-87z" />
    <glyph glyph-name="aacute" unicode="&#xe1;" horiz-adv-x="584" 
d="M144 168q0 -48 33.5 -77t88.5 -29q44 0 81.5 22t63.5 62v73q-31 25 -69 38.5t-76 13.5q-58 0 -90 -27t-32 -76zM264 443q-42 0 -85 -12.5t-78 -34.5v83q35 21 82 32.5t99 11.5q111 0 169 -53.5t58 -155.5v-314h-98v79q-34 -43 -81.5 -66t-104.5 -23q-81 0 -133.5 49
t-52.5 124q0 77 53 125.5t139 48.5q49 0 94 -13.5t82 -39.5v26q0 67 -36 100t-107 33zM424 725l-123 -137h-88l102 137h109z" />
    <glyph glyph-name="acircumflex" unicode="&#xe2;" horiz-adv-x="584" 
d="M144 168q0 -48 33.5 -77t88.5 -29q44 0 81.5 22t63.5 62v73q-31 25 -69 38.5t-76 13.5q-58 0 -90 -27t-32 -76zM264 443q-42 0 -85 -12.5t-78 -34.5v83q35 21 82 32.5t99 11.5q111 0 169 -53.5t58 -155.5v-314h-98v79q-34 -43 -81.5 -66t-104.5 -23q-81 0 -133.5 49
t-52.5 124q0 77 53 125.5t139 48.5q49 0 94 -13.5t82 -39.5v26q0 67 -36 100t-107 33zM342 725l114 -137h-82l-85 90l-86 -90h-76l113 137h102z" />
    <glyph glyph-name="atilde" unicode="&#xe3;" horiz-adv-x="584" 
d="M144 168q0 -48 33.5 -77t88.5 -29q44 0 81.5 22t63.5 62v73q-31 25 -69 38.5t-76 13.5q-58 0 -90 -27t-32 -76zM264 443q-42 0 -85 -12.5t-78 -34.5v83q35 21 82 32.5t99 11.5q111 0 169 -53.5t58 -155.5v-314h-98v79q-34 -43 -81.5 -66t-104.5 -23q-81 0 -133.5 49
t-52.5 124q0 77 53 125.5t139 48.5q49 0 94 -13.5t82 -39.5v26q0 67 -36 100t-107 33zM215 723q21 0 40.5 -7.5t50.5 -30.5q23 -18 35.5 -23.5t24.5 -5.5q20 0 32.5 17t14.5 47h63q-1 -54 -31 -90.5t-76 -36.5q-23 0 -43 8t-51 32q-21 17 -31.5 22t-20.5 5
q-21 0 -34.5 -17.5t-16.5 -48.5h-63q2 60 30 94.5t76 34.5z" />
    <glyph glyph-name="adieresis" unicode="&#xe4;" horiz-adv-x="584" 
d="M144 168q0 -48 33.5 -77t88.5 -29q44 0 81.5 22t63.5 62v73q-31 25 -69 38.5t-76 13.5q-58 0 -90 -27t-32 -76zM264 443q-42 0 -85 -12.5t-78 -34.5v83q35 21 82 32.5t99 11.5q111 0 169 -53.5t58 -155.5v-314h-98v79q-34 -43 -81.5 -66t-104.5 -23q-81 0 -133.5 49
t-52.5 124q0 77 53 125.5t139 48.5q49 0 94 -13.5t82 -39.5v26q0 67 -36 100t-107 33zM421 727v-133h-84v133h84zM246 727v-133h-84v133h84z" />
    <glyph glyph-name="aring" unicode="&#xe5;" horiz-adv-x="584" 
d="M144 168q0 -48 33.5 -77t88.5 -29q44 0 81.5 22t63.5 62v73q-31 25 -69 38.5t-76 13.5q-58 0 -90 -27t-32 -76zM264 443q-42 0 -85 -12.5t-78 -34.5v83q35 21 82 32.5t99 11.5q111 0 169 -53.5t58 -155.5v-314h-98v79q-34 -43 -81.5 -66t-104.5 -23q-81 0 -133.5 49
t-52.5 124q0 77 53 125.5t139 48.5q49 0 94 -13.5t82 -39.5v26q0 67 -36 100t-107 33zM292 569q-46 0 -77 30t-31 75q0 46 30.5 75.5t77.5 29.5q46 0 76.5 -30.5t30.5 -74.5q0 -45 -30.5 -75t-76.5 -30zM292 727q-23 0 -37.5 -14.5t-14.5 -37.5q0 -24 14.5 -39t37.5 -15
t37.5 15t14.5 39q0 23 -14.5 37.5t-37.5 14.5z" />
    <glyph glyph-name="ae" unicode="&#xe6;" horiz-adv-x="937" 
d="M806 297q1 66 -39 107t-104 41q-63 0 -106.5 -40t-51.5 -108h301zM857 34q-29 -21 -73 -32.5t-92 -11.5q-77 0 -138 31t-97 89q-35 -56 -94 -88t-125 -32q-89 0 -144 48t-55 125t53 125.5t139 48.5q53 0 98.5 -13.5t79.5 -39.5q1 7 1 11v15q0 65 -37.5 99t-110.5 34
q-44 0 -83.5 -11.5t-77.5 -35.5v83q36 21 81.5 32.5t96.5 11.5q72 0 117 -25.5t72 -80.5q36 53 85.5 79.5t111.5 26.5q103 0 168.5 -66t67.5 -170q0 -14 -1.5 -30.5t-3.5 -27.5h-391q7 -74 58 -116.5t131 -42.5q43 0 88 12.5t75 33.5v-82zM266 271q-58 0 -90 -27t-32 -76
q0 -48 33.5 -77t88.5 -29q49 0 91.5 29.5t64.5 76.5q-4 11 -6.5 22.5t-4.5 25.5q-34 26 -72 40.5t-73 14.5z" />
    <glyph glyph-name="ccedilla" unicode="&#xe7;" horiz-adv-x="511" 
d="M292 -209q-26 0 -46 4t-44 14v50q26 -11 44.5 -15.5t39.5 -4.5q25 0 38.5 8.5t13.5 25.5q0 16 -12.5 24.5t-36.5 8.5h-48l17 87q-99 15 -158 85.5t-59 177.5q0 119 73.5 193t194.5 74q50 0 89 -10.5t65 -31.5v-89q-24 21 -61.5 34t-75.5 13q-87 0 -136.5 -49t-49.5 -134
q0 -86 49 -134.5t136 -48.5q41 0 75 11.5t70 37.5v-86q-31 -22 -72.5 -34t-91.5 -12h-5l-9 -43h20q43 0 68 -19t25 -52q0 -38 -31 -61.5t-82 -23.5z" />
    <glyph glyph-name="egrave" unicode="&#xe8;" horiz-adv-x="573" 
d="M327 -10q-127 0 -206.5 75.5t-79.5 196.5q0 115 73 188t187 73q103 0 168.5 -66t66.5 -170q0 -17 -1 -33t-3 -25h-392q10 -74 60 -116.5t129 -42.5q44 0 88.5 12.5t75.5 33.5v-82q-29 -20 -73.5 -32t-92.5 -12zM298 445q-63 0 -106 -40t-52 -108h302q0 67 -40 107.5
t-104 40.5zM272 588l-123 137h109l101 -137h-87z" />
    <glyph glyph-name="eacute" unicode="&#xe9;" horiz-adv-x="573" 
d="M327 -10q-127 0 -206.5 75.5t-79.5 196.5q0 115 73 188t187 73q103 0 168.5 -66t66.5 -170q0 -17 -1 -33t-3 -25h-392q10 -74 60 -116.5t129 -42.5q44 0 88.5 12.5t75.5 33.5v-82q-29 -20 -73.5 -32t-92.5 -12zM298 445q-63 0 -106 -40t-52 -108h302q0 67 -40 107.5
t-104 40.5zM431 725l-123 -137h-88l102 137h109z" />
    <glyph glyph-name="ecircumflex" unicode="&#xea;" horiz-adv-x="573" 
d="M327 -10q-127 0 -206.5 75.5t-79.5 196.5q0 115 73 188t187 73q103 0 168.5 -66t66.5 -170q0 -17 -1 -33t-3 -25h-392q10 -74 60 -116.5t129 -42.5q44 0 88.5 12.5t75.5 33.5v-82q-29 -20 -73.5 -32t-92.5 -12zM298 445q-63 0 -106 -40t-52 -108h302q0 67 -40 107.5
t-104 40.5zM343 725l114 -137h-82l-85 90l-86 -90h-76l113 137h102z" />
    <glyph glyph-name="edieresis" unicode="&#xeb;" horiz-adv-x="573" 
d="M327 -10q-127 0 -206.5 75.5t-79.5 196.5q0 115 73 188t187 73q103 0 168.5 -66t66.5 -170q0 -17 -1 -33t-3 -25h-392q10 -74 60 -116.5t129 -42.5q44 0 88.5 12.5t75.5 33.5v-82q-29 -20 -73.5 -32t-92.5 -12zM298 445q-63 0 -106 -40t-52 -108h302q0 67 -40 107.5
t-104 40.5zM415 727v-133h-84v133h84zM240 727v-133h-84v133h84z" />
    <glyph glyph-name="igrave" unicode="&#xec;" horiz-adv-x="253" 
d="M78 0v513h97v-513h-97zM112 588l-123 137h109l101 -137h-87z" />
    <glyph glyph-name="iacute" unicode="&#xed;" horiz-adv-x="253" 
d="M78 0v513h97v-513h-97zM280 725l-123 -137h-88l102 137h109z" />
    <glyph glyph-name="icircumflex" unicode="&#xee;" horiz-adv-x="253" 
d="M78 0v513h97v-513h-97zM177 725l114 -137h-82l-85 90l-86 -90h-76l113 137h102z" />
    <glyph glyph-name="idieresis" unicode="&#xef;" horiz-adv-x="253" 
d="M78 0v513h97v-513h-97zM256 727v-133h-84v133h84zM81 727v-133h-84v133h84z" />
    <glyph glyph-name="eth" unicode="&#xf0;" horiz-adv-x="613" 
d="M307 -10q-115 0 -190 74t-75 186q0 113 69 186.5t175 73.5q52 0 94.5 -17.5t69.5 -50.5q-16 43 -44 85t-66 81l-73 -48l-29 39l66 43q-25 22 -53.5 42.5t-59.5 38.5l85 17q24 -13 46.5 -27.5t43.5 -30.5l66 43l28 -39l-56 -36q79 -72 123 -163.5t44 -191.5
q0 -138 -72.5 -221.5t-191.5 -83.5zM307 73q75 0 120 50.5t45 133.5q0 79 -45.5 127.5t-119.5 48.5q-75 0 -120.5 -50.5t-45.5 -132.5q0 -78 46 -127.5t120 -49.5z" />
    <glyph glyph-name="ntilde" unicode="&#xf1;" horiz-adv-x="619" 
d="M78 0v513h92v-93q31 48 80.5 75.5t109.5 27.5q92 0 139 -50t47 -147v-326h-98v316q0 60 -30.5 90.5t-89.5 30.5q-46 0 -87 -24.5t-66 -66.5v-346h-97zM232 723q21 0 40.5 -7.5t50.5 -30.5q23 -18 35.5 -23.5t24.5 -5.5q20 0 32.5 17t14.5 47h63q-1 -54 -31 -90.5
t-76 -36.5q-23 0 -43 8t-51 32q-21 17 -31.5 22t-20.5 5q-21 0 -34.5 -17.5t-16.5 -48.5h-63q2 60 30 94.5t76 34.5z" />
    <glyph glyph-name="ograve" unicode="&#xf2;" horiz-adv-x="621" 
d="M41 256q0 115 76.5 191t192.5 76t193 -75.5t77 -191.5q0 -115 -77 -190.5t-193 -75.5q-115 0 -192 75.5t-77 190.5zM140 256q0 -82 47.5 -133t122.5 -51t122.5 51t47.5 133t-47 133t-123 51t-123 -51t-47 -133zM288 588l-123 137h109l101 -137h-87z" />
    <glyph glyph-name="oacute" unicode="&#xf3;" horiz-adv-x="621" 
d="M41 256q0 115 76.5 191t192.5 76t193 -75.5t77 -191.5q0 -115 -77 -190.5t-193 -75.5q-115 0 -192 75.5t-77 190.5zM140 256q0 -82 47.5 -133t122.5 -51t122.5 51t47.5 133t-47 133t-123 51t-123 -51t-47 -133zM444 725l-123 -137h-88l102 137h109z" />
    <glyph glyph-name="ocircumflex" unicode="&#xf4;" horiz-adv-x="621" 
d="M41 256q0 115 76.5 191t192.5 76t193 -75.5t77 -191.5q0 -115 -77 -190.5t-193 -75.5q-115 0 -192 75.5t-77 190.5zM140 256q0 -82 47.5 -133t122.5 -51t122.5 51t47.5 133t-47 133t-123 51t-123 -51t-47 -133zM360 725l114 -137h-82l-85 90l-86 -90h-76l113 137h102z
" />
    <glyph glyph-name="otilde" unicode="&#xf5;" horiz-adv-x="621" 
d="M41 256q0 115 76.5 191t192.5 76t193 -75.5t77 -191.5q0 -115 -77 -190.5t-193 -75.5q-115 0 -192 75.5t-77 190.5zM140 256q0 -82 47.5 -133t122.5 -51t122.5 51t47.5 133t-47 133t-123 51t-123 -51t-47 -133zM233 723q21 0 40.5 -7.5t50.5 -30.5q23 -18 35.5 -23.5
t24.5 -5.5q20 0 32.5 17t14.5 47h63q-1 -54 -31 -90.5t-76 -36.5q-23 0 -43 8t-51 32q-21 17 -31.5 22t-20.5 5q-21 0 -34.5 -17.5t-16.5 -48.5h-63q2 60 30 94.5t76 34.5z" />
    <glyph glyph-name="odieresis" unicode="&#xf6;" horiz-adv-x="621" 
d="M41 256q0 115 76.5 191t192.5 76t193 -75.5t77 -191.5q0 -115 -77 -190.5t-193 -75.5q-115 0 -192 75.5t-77 190.5zM140 256q0 -82 47.5 -133t122.5 -51t122.5 51t47.5 133t-47 133t-123 51t-123 -51t-47 -133zM439 727v-133h-84v133h84zM264 727v-133h-84v133h84z" />
    <glyph glyph-name="divide" unicode="&#xf7;" horiz-adv-x="571" 
d="M333 471h-99v113h99v-113zM526 304h-482v76h482v-76zM333 100h-99v113h99v-113z" />
    <glyph glyph-name="oslash" unicode="&#xf8;" horiz-adv-x="621" 
d="M310 -10q-48 0 -90.5 14t-75.5 39l-53 -53l-45 43l53 53q-27 34 -42.5 77t-15.5 93q0 115 76.5 191t192.5 76q49 0 92.5 -14.5t77.5 -40.5l55 55l45 -44l-55 -55q26 -34 40.5 -76.5t14.5 -91.5q0 -115 -77 -190.5t-193 -75.5zM140 256q0 -30 6.5 -56t18.5 -47l252 252
q-21 17 -48.5 26t-58.5 9q-76 0 -123 -51t-47 -133zM310 72q75 0 122.5 51t47.5 133q0 28 -6 53.5t-17 46.5l-251 -251q21 -16 47.5 -24.5t56.5 -8.5z" />
    <glyph glyph-name="ugrave" unicode="&#xf9;" horiz-adv-x="604" 
d="M526 513v-513h-92v94q-32 -51 -78 -77.5t-102 -26.5q-89 0 -135 49t-46 143v331h97v-319q0 -60 29 -89.5t87 -29.5q42 0 79.5 24.5t62.5 68.5v345h98zM295 588l-123 137h109l101 -137h-87z" />
    <glyph glyph-name="uacute" unicode="&#xfa;" horiz-adv-x="604" 
d="M526 513v-513h-92v94q-32 -51 -78 -77.5t-102 -26.5q-89 0 -135 49t-46 143v331h97v-319q0 -60 29 -89.5t87 -29.5q42 0 79.5 24.5t62.5 68.5v345h98zM439 725l-123 -137h-88l102 137h109z" />
    <glyph glyph-name="ucircumflex" unicode="&#xfb;" horiz-adv-x="604" 
d="M526 513v-513h-92v94q-32 -51 -78 -77.5t-102 -26.5q-89 0 -135 49t-46 143v331h97v-319q0 -60 29 -89.5t87 -29.5q42 0 79.5 24.5t62.5 68.5v345h98zM352 725l114 -137h-82l-85 90l-86 -90h-76l113 137h102z" />
    <glyph glyph-name="udieresis" unicode="&#xfc;" horiz-adv-x="604" 
d="M526 513v-513h-92v94q-32 -51 -78 -77.5t-102 -26.5q-89 0 -135 49t-46 143v331h97v-319q0 -60 29 -89.5t87 -29.5q42 0 79.5 24.5t62.5 68.5v345h98zM431 727v-133h-84v133h84zM256 727v-133h-84v133h84z" />
    <glyph glyph-name="yacute" unicode="&#xfd;" horiz-adv-x="561" 
d="M90 -214q-12 0 -24 2t-22 5v81q10 -2 20 -3.5t20 -1.5q46 0 85 32.5t69 96.5l-226 515h99l173 -406l167 406h98l-211 -491q-55 -127 -113.5 -181.5t-134.5 -54.5zM428 725l-123 -137h-88l102 137h109z" />
    <glyph glyph-name="thorn" unicode="&#xfe;" horiz-adv-x="646" 
d="M338 74q77 0 122.5 50t45.5 134q0 83 -45.5 132t-122.5 49q-49 0 -92.5 -27t-70.5 -75v-169q29 -45 71.5 -69.5t91.5 -24.5zM605 258q0 -117 -69.5 -192.5t-176.5 -75.5q-55 0 -103 24.5t-81 69.5v-284h-97v923l97 17v-314q32 47 79.5 72t104.5 25q108 0 177 -74t69 -191
z" />
    <glyph glyph-name="ydieresis" unicode="&#xff;" horiz-adv-x="561" 
d="M90 -214q-12 0 -24 2t-22 5v81q10 -2 20 -3.5t20 -1.5q46 0 85 32.5t69 96.5l-226 515h99l173 -406l167 406h98l-211 -491q-55 -127 -113.5 -181.5t-134.5 -54.5zM409 727v-133h-84v133h84zM234 727v-133h-84v133h84z" />
    <glyph glyph-name="Amacron" unicode="&#x100;" horiz-adv-x="709" 
d="M351 584l-137 -344h275zM11 0l282 690h122l282 -690h-112l-62 154h-344l-61 -154h-107zM505 871v-76h-303v76h303z" />
    <glyph glyph-name="amacron" unicode="&#x101;" horiz-adv-x="584" 
d="M144 168q0 -48 33.5 -77t88.5 -29q44 0 81.5 22t63.5 62v73q-31 25 -69 38.5t-76 13.5q-58 0 -90 -27t-32 -76zM264 443q-42 0 -85 -12.5t-78 -34.5v83q35 21 82 32.5t99 11.5q111 0 169 -53.5t58 -155.5v-314h-98v79q-34 -43 -81.5 -66t-104.5 -23q-81 0 -133.5 49
t-52.5 124q0 77 53 125.5t139 48.5q49 0 94 -13.5t82 -39.5v26q0 67 -36 100t-107 33zM443 695v-76h-303v76h303z" />
    <glyph glyph-name="Abreve" unicode="&#x102;" horiz-adv-x="709" 
d="M351 584l-137 -344h275zM11 0l282 690h122l282 -690h-112l-62 154h-344l-61 -154h-107zM254 900q10 -38 33 -56.5t61 -18.5t61 18t34 57h65q-8 -63 -50.5 -100t-109.5 -37t-109.5 37t-49.5 100h65z" />
    <glyph glyph-name="abreve" unicode="&#x103;" horiz-adv-x="584" 
d="M144 168q0 -48 33.5 -77t88.5 -29q44 0 81.5 22t63.5 62v73q-31 25 -69 38.5t-76 13.5q-58 0 -90 -27t-32 -76zM264 443q-42 0 -85 -12.5t-78 -34.5v83q35 21 82 32.5t99 11.5q111 0 169 -53.5t58 -155.5v-314h-98v79q-34 -43 -81.5 -66t-104.5 -23q-81 0 -133.5 49
t-52.5 124q0 77 53 125.5t139 48.5q49 0 94 -13.5t82 -39.5v26q0 67 -36 100t-107 33zM192 724q10 -38 33 -56.5t61 -18.5t61 18t34 57h65q-8 -63 -50.5 -100t-109.5 -37t-109.5 37t-49.5 100h65z" />
    <glyph glyph-name="Aogonek" unicode="&#x104;" horiz-adv-x="709" 
d="M590 -154q19 0 40 7.5t38 20.5v-58q-24 -15 -46 -21t-50 -6q-52 0 -86 25.5t-34 65.5q0 38 32 72.5t94 64.5l-55 137h-344l-61 -154h-107l282 690h122l282 -690h-67q-58 -33 -81 -56.5t-23 -46.5q0 -24 17.5 -37.5t46.5 -13.5zM214 240h275l-138 344z" />
    <glyph glyph-name="aogonek" unicode="&#x105;" horiz-adv-x="584" 
d="M433 -154q19 0 39.5 7.5t37.5 20.5v-58q-24 -15 -46 -21t-49 -6q-52 0 -86 25.5t-34 65.5q0 35 28.5 67t87.5 62v70q-34 -43 -81.5 -66t-104.5 -23q-81 0 -133.5 49t-52.5 124q0 77 53 125.5t139 48.5q49 0 94 -13.5t82 -39.5v26q0 67 -36 100t-107 33q-42 0 -85 -12.5
t-78 -34.5v83q35 21 82 32.5t99 11.5q111 0 169 -53.5t58 -155.5v-314h-48q-51 -31 -72 -54.5t-21 -48.5q0 -23 18 -37t47 -14zM144 168q0 -48 33.5 -77t88.5 -29q44 0 81.5 22t63.5 62v73q-31 25 -69 38.5t-76 13.5q-58 0 -90 -27t-32 -76z" />
    <glyph glyph-name="Cacute" unicode="&#x106;" horiz-adv-x="652" 
d="M151 346q0 -120 69.5 -191t186.5 -71q54 0 104 12.5t99 38.5v-98q-45 -24 -95.5 -35.5t-113.5 -11.5q-157 0 -257 99.5t-100 255.5q0 155 101 255t257 100q58 0 109 -13t88 -38v-98q-42 27 -91.5 40.5t-103.5 13.5q-115 0 -184 -71t-69 -188zM499 901l-123 -137h-88
l102 137h109z" />
    <glyph glyph-name="cacute" unicode="&#x107;" horiz-adv-x="511" 
d="M463 392q-24 21 -61.5 34t-75.5 13q-87 0 -136.5 -49t-49.5 -134q0 -86 49 -134.5t136 -48.5q41 0 75 11.5t70 37.5v-86q-31 -22 -72.5 -34t-91.5 -12q-119 0 -192 73.5t-73 192.5t73.5 193t194.5 74q50 0 89 -10.5t65 -31.5v-89zM425 725l-123 -137h-88l102 137h109z
" />
    <glyph glyph-name="Ccircumflex" unicode="&#x108;" horiz-adv-x="652" 
d="M151 346q0 -120 69.5 -191t186.5 -71q54 0 104 12.5t99 38.5v-98q-45 -24 -95.5 -35.5t-113.5 -11.5q-157 0 -257 99.5t-100 255.5q0 155 101 255t257 100q58 0 109 -13t88 -38v-98q-42 27 -91.5 40.5t-103.5 13.5q-115 0 -184 -71t-69 -188zM412 901l114 -137h-82
l-85 90l-86 -90h-76l113 137h102z" />
    <glyph glyph-name="ccircumflex" unicode="&#x109;" horiz-adv-x="511" 
d="M463 392q-24 21 -61.5 34t-75.5 13q-87 0 -136.5 -49t-49.5 -134q0 -86 49 -134.5t136 -48.5q41 0 75 11.5t70 37.5v-86q-31 -22 -72.5 -34t-91.5 -12q-119 0 -192 73.5t-73 192.5t73.5 193t194.5 74q50 0 89 -10.5t65 -31.5v-89zM328 725l114 -137h-82l-85 90l-86 -90
h-76l113 137h102z" />
    <glyph glyph-name="Cdotaccent" unicode="&#x10a;" horiz-adv-x="652" 
d="M151 346q0 -120 69.5 -191t186.5 -71q54 0 104 12.5t99 38.5v-98q-45 -24 -95.5 -35.5t-113.5 -11.5q-157 0 -257 99.5t-100 255.5q0 155 101 255t257 100q58 0 109 -13t88 -38v-98q-42 27 -91.5 40.5t-103.5 13.5q-115 0 -184 -71t-69 -188zM327 770v133h97v-133h-97z
" />
    <glyph glyph-name="cdotaccent" unicode="&#x10b;" horiz-adv-x="511" 
d="M463 392q-24 21 -61.5 34t-75.5 13q-87 0 -136.5 -49t-49.5 -134q0 -86 49 -134.5t136 -48.5q41 0 75 11.5t70 37.5v-86q-31 -22 -72.5 -34t-91.5 -12q-119 0 -192 73.5t-73 192.5t73.5 193t194.5 74q50 0 89 -10.5t65 -31.5v-89zM225 594v133h97v-133h-97z" />
    <glyph glyph-name="Ccaron" unicode="&#x10c;" horiz-adv-x="652" 
d="M151 346q0 -120 69.5 -191t186.5 -71q54 0 104 12.5t99 38.5v-98q-45 -24 -95.5 -35.5t-113.5 -11.5q-157 0 -257 99.5t-100 255.5q0 155 101 255t257 100q58 0 109 -13t88 -38v-98q-42 27 -91.5 40.5t-103.5 13.5q-115 0 -184 -71t-69 -188zM527 901l-114 -137h-102
l-113 137h76l86 -89l85 89h82z" />
    <glyph glyph-name="ccaron" unicode="&#x10d;" horiz-adv-x="511" 
d="M463 392q-24 21 -61.5 34t-75.5 13q-87 0 -136.5 -49t-49.5 -134q0 -86 49 -134.5t136 -48.5q41 0 75 11.5t70 37.5v-86q-31 -22 -72.5 -34t-91.5 -12q-119 0 -192 73.5t-73 192.5t73.5 193t194.5 74q50 0 89 -10.5t65 -31.5v-89zM440 725l-114 -137h-102l-113 137h76
l86 -89l85 89h82z" />
    <glyph glyph-name="Dcaron" unicode="&#x10e;" horiz-adv-x="727" 
d="M83 0v690h255q150 0 247.5 -97t97.5 -246q0 -153 -98 -250t-252 -97h-250zM334 598h-148v-507h148q111 0 176.5 69t65.5 186q0 114 -66 183t-176 69zM522 901l-114 -137h-102l-113 137h76l86 -89l85 89h82z" />
    <glyph glyph-name="dcaron" unicode="&#x10f;" horiz-adv-x="735" 
d="M308 74q49 0 91.5 26t70.5 73v169q-27 46 -69.5 71.5t-92.5 25.5q-77 0 -122.5 -49t-45.5 -132q0 -84 45.5 -134t122.5 -50zM568 0h-98v89q-33 -48 -79.5 -73.5t-103.5 -25.5q-107 0 -176.5 75.5t-69.5 192.5t69 191t177 74q56 0 103.5 -23t79.5 -66v289l98 17v-740z
M684 598h-43v112h100v-70q0 -50 -19 -86.5t-59 -63.5l-24 20q19 17 30.5 39.5t14.5 48.5z" />
    <glyph glyph-name="Dcroat" unicode="&#x110;" horiz-adv-x="730" 
d="M328 308h-139v-217h148q111 0 176 68.5t65 186.5q0 115 -65.5 183.5t-175.5 68.5h-148v-215h139v-75zM85 0v308h-71v75h71v307h255q150 0 248 -97t98 -246q0 -153 -98 -250t-253 -97h-250z" />
    <glyph glyph-name="dcroat" unicode="&#x111;" horiz-adv-x="646" 
d="M308 74q49 0 91.5 26t70.5 73v169q-27 46 -69.5 71.5t-92.5 25.5q-77 0 -122.5 -49t-45.5 -132q0 -84 45.5 -134t122.5 -50zM470 89q-33 -48 -79.5 -73.5t-103.5 -25.5q-107 0 -176.5 75.5t-69.5 192.5t69 191t177 74q56 0 103.5 -23t79.5 -66v159h-202v57h202v73l98 17
v-90h60v-57h-60v-593h-98v89z" />
    <glyph glyph-name="Emacron" unicode="&#x112;" horiz-adv-x="590" 
d="M83 690h458v-92h-355v-200h262v-92h-262v-215h355v-91h-458v690zM458 871v-76h-303v76h303z" />
    <glyph glyph-name="emacron" unicode="&#x113;" horiz-adv-x="573" 
d="M327 -10q-127 0 -206.5 75.5t-79.5 196.5q0 115 73 188t187 73q103 0 168.5 -66t66.5 -170q0 -17 -1 -33t-3 -25h-392q10 -74 60 -116.5t129 -42.5q44 0 88.5 12.5t75.5 33.5v-82q-29 -20 -73.5 -32t-92.5 -12zM298 445q-63 0 -106 -40t-52 -108h302q0 67 -40 107.5
t-104 40.5zM445 695v-76h-303v76h303z" />
    <glyph glyph-name="Ebreve" unicode="&#x114;" horiz-adv-x="590" 
d="M83 690h458v-92h-355v-200h262v-92h-262v-215h355v-91h-458v690zM216 900q10 -38 33 -56.5t61 -18.5t61 18t34 57h65q-8 -63 -50.5 -100t-109.5 -37t-109.5 37t-49.5 100h65z" />
    <glyph glyph-name="ebreve" unicode="&#x115;" horiz-adv-x="573" 
d="M327 -10q-127 0 -206.5 75.5t-79.5 196.5q0 115 73 188t187 73q103 0 168.5 -66t66.5 -170q0 -17 -1 -33t-3 -25h-392q10 -74 60 -116.5t129 -42.5q44 0 88.5 12.5t75.5 33.5v-82q-29 -20 -73.5 -32t-92.5 -12zM298 445q-63 0 -106 -40t-52 -108h302q0 67 -40 107.5
t-104 40.5zM193 724q10 -38 33 -56.5t61 -18.5t61 18t34 57h65q-8 -63 -50.5 -100t-109.5 -37t-109.5 37t-49.5 100h65z" />
    <glyph glyph-name="Edotaccent" unicode="&#x116;" horiz-adv-x="590" 
d="M83 690h458v-92h-355v-200h262v-92h-262v-215h355v-91h-458v690zM263 770v133h97v-133h-97z" />
    <glyph glyph-name="edotaccent" unicode="&#x117;" horiz-adv-x="573" 
d="M327 -10q-127 0 -206.5 75.5t-79.5 196.5q0 115 73 188t187 73q103 0 168.5 -66t66.5 -170q0 -17 -1 -33t-3 -25h-392q10 -74 60 -116.5t129 -42.5q44 0 88.5 12.5t75.5 33.5v-82q-29 -20 -73.5 -32t-92.5 -12zM298 445q-63 0 -106 -40t-52 -108h302q0 67 -40 107.5
t-104 40.5zM245 594v133h97v-133h-97z" />
    <glyph glyph-name="Eogonek" unicode="&#x118;" horiz-adv-x="590" 
d="M456 -154q19 0 40 7.5t38 20.5v-58q-24 -15 -46 -21t-50 -6q-52 0 -86 25.5t-34 65.5q0 33 24.5 62.5t76.5 57.5h-336v690h458v-92h-355v-200h262v-92h-262v-215h355v-91h-52q-51 -29 -74 -53.5t-23 -49.5q0 -24 17.5 -37.5t46.5 -13.5z" />
    <glyph glyph-name="eogonek" unicode="&#x119;" horiz-adv-x="573" 
d="M368 -154q19 0 39.5 7.5t38.5 20.5v-58q-25 -15 -47 -21t-49 -6q-52 0 -86 25.5t-34 65.5q0 30 19.5 57.5t59.5 52.5q-120 6 -194 81t-74 191q0 115 73 188t187 73q103 0 168.5 -66t66.5 -170q0 -17 -1 -33t-3 -25h-392q9 -74 60 -116.5t129 -42.5q44 0 88.5 12.5
t75.5 33.5v-82q-21 -15 -50 -25.5t-63 -14.5q-41 -28 -59 -51t-18 -46t18 -37t47 -14zM442 297q0 67 -40 107.5t-104 40.5q-63 0 -106 -40t-52 -108h302z" />
    <glyph glyph-name="Ecaron" unicode="&#x11a;" horiz-adv-x="590" 
d="M83 690h458v-92h-355v-200h262v-92h-262v-215h355v-91h-458v690zM470 901l-114 -137h-102l-113 137h76l86 -89l85 89h82z" />
    <glyph glyph-name="ecaron" unicode="&#x11b;" horiz-adv-x="573" 
d="M327 -10q-127 0 -206.5 75.5t-79.5 196.5q0 115 73 188t187 73q103 0 168.5 -66t66.5 -170q0 -17 -1 -33t-3 -25h-392q10 -74 60 -116.5t129 -42.5q44 0 88.5 12.5t75.5 33.5v-82q-29 -20 -73.5 -32t-92.5 -12zM298 445q-63 0 -106 -40t-52 -108h302q0 67 -40 107.5
t-104 40.5zM460 725l-114 -137h-102l-113 137h76l86 -89l85 89h82z" />
    <glyph glyph-name="Gcircumflex" unicode="&#x11c;" horiz-adv-x="729" 
d="M404 362h269v-284q-47 -42 -119 -65t-151 -23q-159 0 -259 99t-100 255t100.5 256t257.5 100q57 0 108 -11t88 -32v-99q-43 23 -92 35t-102 12q-115 0 -184 -70.5t-69 -189.5t70.5 -190t188.5 -71q52 0 94 12t71 35v145h-171v86zM424 901l114 -137h-82l-85 90l-86 -90
h-76l113 137h102z" />
    <glyph glyph-name="gcircumflex" unicode="&#x11d;" horiz-adv-x="646" 
d="M308 74q48 0 89.5 25.5t72.5 72.5v172q-27 44 -70 69.5t-92 25.5q-77 0 -122.5 -49t-45.5 -132q0 -84 45.5 -134t122.5 -50zM301 -131q79 0 124 42t45 116v63q-32 -49 -79 -74.5t-105 -25.5q-108 0 -176.5 74.5t-68.5 193.5q0 117 69 191t177 74q57 0 105.5 -24t77.5 -66
v80h98v-473q0 -118 -70 -186t-189 -68q-32 0 -62.5 5.5t-51.5 15.5v83q23 -10 51.5 -15.5t54.5 -5.5zM368 725l114 -137h-82l-85 90l-86 -90h-76l113 137h102z" />
    <glyph glyph-name="Gbreve" unicode="&#x11e;" horiz-adv-x="729" 
d="M404 362h269v-284q-47 -42 -119 -65t-151 -23q-159 0 -259 99t-100 255t100.5 256t257.5 100q57 0 108 -11t88 -32v-99q-43 23 -92 35t-102 12q-115 0 -184 -70.5t-69 -189.5t70.5 -190t188.5 -71q52 0 94 12t71 35v145h-171v86zM286 900q10 -38 33 -56.5t61 -18.5t61 18
t34 57h65q-8 -63 -50.5 -100t-109.5 -37t-109.5 37t-49.5 100h65z" />
    <glyph glyph-name="gbreve" unicode="&#x11f;" horiz-adv-x="646" 
d="M308 74q48 0 89.5 25.5t72.5 72.5v172q-27 44 -70 69.5t-92 25.5q-77 0 -122.5 -49t-45.5 -132q0 -84 45.5 -134t122.5 -50zM301 -131q79 0 124 42t45 116v63q-32 -49 -79 -74.5t-105 -25.5q-108 0 -176.5 74.5t-68.5 193.5q0 117 69 191t177 74q57 0 105.5 -24t77.5 -66
v80h98v-473q0 -118 -70 -186t-189 -68q-32 0 -62.5 5.5t-51.5 15.5v83q23 -10 51.5 -15.5t54.5 -5.5zM222 724q10 -38 33 -56.5t61 -18.5t61 18t34 57h65q-8 -63 -50.5 -100t-109.5 -37t-109.5 37t-49.5 100h65z" />
    <glyph glyph-name="Gdotaccent" unicode="&#x120;" horiz-adv-x="729" 
d="M404 362h269v-284q-47 -42 -119 -65t-151 -23q-159 0 -259 99t-100 255t100.5 256t257.5 100q57 0 108 -11t88 -32v-99q-43 23 -92 35t-102 12q-115 0 -184 -70.5t-69 -189.5t70.5 -190t188.5 -71q52 0 94 12t71 35v145h-171v86zM317 770v133h97v-133h-97z" />
    <glyph glyph-name="gdotaccent" unicode="&#x121;" horiz-adv-x="646" 
d="M308 74q48 0 89.5 25.5t72.5 72.5v172q-27 44 -70 69.5t-92 25.5q-77 0 -122.5 -49t-45.5 -132q0 -84 45.5 -134t122.5 -50zM301 -131q79 0 124 42t45 116v63q-32 -49 -79 -74.5t-105 -25.5q-108 0 -176.5 74.5t-68.5 193.5q0 117 69 191t177 74q57 0 105.5 -24t77.5 -66
v80h98v-473q0 -118 -70 -186t-189 -68q-32 0 -62.5 5.5t-51.5 15.5v83q23 -10 51.5 -15.5t54.5 -5.5zM270 594v133h97v-133h-97z" />
    <glyph glyph-name="Gcommaaccent" unicode="&#x122;" horiz-adv-x="729" 
d="M404 362h269v-284q-47 -42 -119 -65t-151 -23q-159 0 -259 99t-100 255t100.5 256t257.5 100q57 0 108 -11t88 -32v-99q-43 23 -92 35t-102 12q-115 0 -184 -70.5t-69 -189.5t70.5 -190t188.5 -71q52 0 94 12t71 35v145h-171v86zM383 -175h-43v111h100v-69
q0 -44 -19.5 -77t-58.5 -55l-24 20q19 13 30.5 31t14.5 39z" />
    <glyph glyph-name="gcommaaccent" unicode="&#x123;" horiz-adv-x="646" 
d="M308 74q48 0 89.5 25.5t72.5 72.5v172q-27 44 -70 69.5t-92 25.5q-77 0 -122.5 -49t-45.5 -132q0 -84 45.5 -134t122.5 -50zM301 -131q79 0 124 42t45 116v63q-32 -49 -79 -74.5t-105 -25.5q-108 0 -176.5 74.5t-68.5 193.5q0 117 69 191t177 74q57 0 105.5 -24t77.5 -66
v80h98v-473q0 -118 -70 -186t-189 -68q-32 0 -62.5 5.5t-51.5 15.5v83q23 -10 51.5 -15.5t54.5 -5.5zM322 694h43v-107h-100v65q0 45 19 79t58 57l25 -20q-18 -12 -29.5 -31.5t-15.5 -42.5z" />
    <glyph glyph-name="Hcircumflex" unicode="&#x124;" horiz-adv-x="753" 
d="M83 0v690h103v-304h380v304h104v-690h-104v294h-380v-294h-103zM426 901l114 -137h-82l-85 90l-86 -90h-76l113 137h102z" />
    <glyph glyph-name="hcircumflex" unicode="&#x125;" horiz-adv-x="619" 
d="M317 910l114 -138h-83l-85 91l-85 -91h-77l114 138h102zM78 0v723l97 17v-313q30 45 79 70.5t106 25.5q92 0 139 -50t47 -147v-326h-98v316q0 60 -30.5 90.5t-89.5 30.5q-46 0 -87 -24.5t-66 -65.5v-347h-97z" />
    <glyph glyph-name="Hbar" unicode="&#x126;" horiz-adv-x="753" 
d="M566 484h-380v-112h380v112zM83 0v484h-60v78h60v128h103v-128h380v128h104v-128h60v-78h-60v-484h-104v294h-380v-294h-103z" />
    <glyph glyph-name="hbar" unicode="&#x127;" horiz-adv-x="619" 
d="M175 0h-97v593h-55v57h55v73l97 17v-90h208v-57h-208v-166q30 45 79 70.5t106 25.5q92 0 139 -50t47 -147v-326h-98v316q0 60 -30.5 90.5t-89.5 30.5q-46 0 -87 -24.5t-66 -65.5v-347z" />
    <glyph glyph-name="Itilde" unicode="&#x128;" horiz-adv-x="269" 
d="M83 0v690h103v-690h-103zM58 899q21 0 40.5 -7.5t50.5 -30.5q23 -18 35.5 -23.5t24.5 -5.5q20 0 32.5 17t14.5 47h63q-1 -54 -31 -90.5t-76 -36.5q-23 0 -43 8t-51 32q-21 17 -31.5 22t-20.5 5q-21 0 -34.5 -17.5t-16.5 -48.5h-63q2 60 30 94.5t76 34.5z" />
    <glyph glyph-name="itilde" unicode="&#x129;" horiz-adv-x="253" 
d="M78 0v513h97v-513h-97zM50 723q21 0 40.5 -7.5t50.5 -30.5q23 -18 35.5 -23.5t24.5 -5.5q20 0 32.5 17t14.5 47h63q-1 -54 -31 -90.5t-76 -36.5q-23 0 -43 8t-51 32q-21 17 -31.5 22t-20.5 5q-21 0 -34.5 -17.5t-16.5 -48.5h-63q2 60 30 94.5t76 34.5z" />
    <glyph glyph-name="Imacron" unicode="&#x12a;" horiz-adv-x="269" 
d="M83 0v690h103v-690h-103zM286 871v-76h-303v76h303z" />
    <glyph glyph-name="imacron" unicode="&#x12b;" horiz-adv-x="253" 
d="M78 0v513h97v-513h-97zM278 695v-76h-303v76h303z" />
    <glyph glyph-name="Ibreve" unicode="&#x12c;" horiz-adv-x="269" 
d="M83 0v690h103v-690h-103zM35 900q10 -38 33 -56.5t61 -18.5t61 18t34 57h65q-8 -63 -50.5 -100t-109.5 -37t-109.5 37t-49.5 100h65z" />
    <glyph glyph-name="ibreve" unicode="&#x12d;" horiz-adv-x="253" 
d="M78 0v513h97v-513h-97zM27 724q10 -38 33 -56.5t61 -18.5t61 18t34 57h65q-8 -63 -50.5 -100t-109.5 -37t-109.5 37t-49.5 100h65z" />
    <glyph glyph-name="Iogonek" unicode="&#x12e;" horiz-adv-x="269" 
d="M105 -154q18 0 39 7.5t39 20.5v-58q-25 -15 -47 -21t-49 -6q-52 0 -85.5 25t-33.5 66q0 37 29.5 71t85.5 63v676h103v-690h-51q-54 -34 -74.5 -57t-20.5 -46t18 -37t47 -14z" />
    <glyph glyph-name="iogonek" unicode="&#x12f;" horiz-adv-x="253" 
d="M78 594v133h97v-133h-97zM106 -154q18 0 38 7t37 20v-58q-24 -15 -45.5 -21t-46.5 -6q-50 0 -82 25t-32 66q0 35 26.5 68.5t76.5 62.5v503h97v-513h-43q-45 -31 -64.5 -55.5t-19.5 -49.5q0 -23 15.5 -36t42.5 -13z" />
    <glyph glyph-name="Idotaccent" unicode="&#x130;" horiz-adv-x="269" 
d="M83 0v690h103v-690h-103zM86 770v133h97v-133h-97z" />
    <glyph glyph-name="dotlessi" unicode="&#x131;" horiz-adv-x="253" 
d="M78 0v513h97v-513h-97z" />
    <glyph glyph-name="IJ" unicode="&#x132;" horiz-adv-x="720" 
d="M83 0v690h103v-690h-103zM642 230q0 -111 -62 -175.5t-167 -64.5q-25 0 -55.5 4.5t-50.5 11.5v92q22 -7 47 -10.5t54 -3.5q64 0 97 36.5t33 107.5v462h104v-460z" />
    <glyph glyph-name="ij" unicode="&#x133;" horiz-adv-x="515" 
d="M78 594v133h97v-133h-97zM78 0v513h97v-513h-97zM436 727v-133h-98v133h98zM232 -129q15 -1 20.5 -1.5t10.5 -0.5q38 0 56.5 23t18.5 69v552h98v-547q0 -87 -37.5 -133.5t-108.5 -46.5q-14 0 -28.5 2t-29.5 5v78z" />
    <glyph glyph-name="Jcircumflex" unicode="&#x134;" horiz-adv-x="451" 
d="M373 230q0 -111 -62 -175.5t-167 -64.5q-25 0 -55.5 4.5t-50.5 11.5v92q22 -7 47 -10.5t54 -3.5q64 0 97 36.5t33 107.5v462h104v-460zM353 901l114 -137h-82l-85 90l-86 -90h-76l113 137h102z" />
    <glyph glyph-name="jcircumflex" unicode="&#x135;" horiz-adv-x="261" 
d="M-21 -129q15 -1 20.5 -1.5t10.5 -0.5q38 0 56.5 23t18.5 69v552h98v-547q0 -87 -37.5 -133.5t-108.5 -46.5q-14 0 -28.5 2t-29.5 5v78zM181 725l114 -137h-82l-85 90l-86 -90h-76l113 137h102z" />
    <glyph glyph-name="Kcommaaccent" unicode="&#x136;" horiz-adv-x="662" 
d="M186 0h-103v690h103v-366l312 366h115l-269 -314l301 -376h-126l-241 299l-92 -106v-193zM325 -175h-43v111h100v-69q0 -44 -19.5 -77t-58.5 -55l-24 20q19 13 30.5 31t14.5 39z" />
    <glyph glyph-name="kcommaaccent" unicode="&#x137;" horiz-adv-x="563" 
d="M175 0h-97v723l97 17v-478l235 251h112l-216 -225l241 -288h-119l-186 220l-67 -69v-151zM275 -175h-43v111h100v-69q0 -44 -19.5 -77t-58.5 -55l-24 20q19 13 30.5 31t14.5 39z" />
    <glyph glyph-name="Lacute" unicode="&#x139;" horiz-adv-x="591" 
d="M83 0v690h103v-599h360v-91h-463zM325 901l-123 -137h-88l102 137h109z" />
    <glyph glyph-name="lacute" unicode="&#x13a;" horiz-adv-x="253" 
d="M280 922l-122 -138h-88l102 138h108zM78 723l97 17v-740h-97v723z" />
    <glyph glyph-name="Lcommaaccent" unicode="&#x13b;" horiz-adv-x="591" 
d="M83 0v690h103v-599h360v-91h-463zM296 -175h-43v111h100v-69q0 -44 -19.5 -77t-58.5 -55l-24 20q19 13 30.5 31t14.5 39z" />
    <glyph glyph-name="lcommaaccent" unicode="&#x13c;" horiz-adv-x="253" 
d="M78 723l97 17v-740h-97v723zM121 -175h-43v111h100v-69q0 -44 -19.5 -77t-58.5 -55l-24 20q19 13 30.5 31t14.5 39z" />
    <glyph glyph-name="Lcaron" unicode="&#x13d;" horiz-adv-x="591" 
d="M83 0v690h103v-599h360v-91h-463zM347 598h-43v112h100v-70q0 -50 -19 -86.5t-59 -63.5l-24 20q19 17 30.5 39.5t14.5 48.5z" />
    <glyph glyph-name="lcaron" unicode="&#x13e;" horiz-adv-x="342" 
d="M78 723l97 17v-740h-97v723zM291 598h-43v112h100v-70q0 -50 -19 -86.5t-59 -63.5l-24 20q19 17 30.5 39.5t14.5 48.5z" />
    <glyph glyph-name="Ldot" unicode="&#x13f;" horiz-adv-x="591" 
d="M83 0v690h103v-599h360v-91h-463zM467 315h-108v122h108v-122z" />
    <glyph glyph-name="ldot" unicode="&#x140;" horiz-adv-x="353" 
d="M78 723l97 17v-740h-97v723zM353 292h-109v122h109v-122z" />
    <glyph glyph-name="Lslash" unicode="&#x141;" horiz-adv-x="594" 
d="M85 0v272l-76 -35v82l76 35v336h104v-288l192 89v-81l-192 -89v-230h360v-91h-464z" />
    <glyph glyph-name="lslash" unicode="&#x142;" horiz-adv-x="264" 
d="M83 0v327l-64 -30v84l64 30v312l98 17v-282l66 31v-85l-66 -31v-373h-98z" />
    <glyph glyph-name="Nacute" unicode="&#x143;" horiz-adv-x="746" 
d="M663 690v-690h-98l-379 517v-517h-103v690h97l379 -524v524h104zM510 901l-123 -137h-88l102 137h109z" />
    <glyph glyph-name="nacute" unicode="&#x144;" horiz-adv-x="619" 
d="M78 0v513h92v-93q31 48 80.5 75.5t109.5 27.5q92 0 139 -50t47 -147v-326h-98v316q0 60 -30.5 90.5t-89.5 30.5q-46 0 -87 -24.5t-66 -66.5v-346h-97zM440 725l-123 -137h-88l102 137h109z" />
    <glyph glyph-name="Ncommaaccent" unicode="&#x145;" horiz-adv-x="746" 
d="M663 690v-690h-98l-379 517v-517h-103v690h97l379 -524v524h104zM367 -175h-43v111h100v-69q0 -44 -19.5 -77t-58.5 -55l-24 20q19 13 30.5 31t14.5 39z" />
    <glyph glyph-name="ncommaaccent" unicode="&#x146;" horiz-adv-x="619" 
d="M78 0v513h92v-93q31 48 80.5 75.5t109.5 27.5q92 0 139 -50t47 -147v-326h-98v316q0 60 -30.5 90.5t-89.5 30.5q-46 0 -87 -24.5t-66 -66.5v-346h-97zM303 -175h-43v111h100v-69q0 -44 -19.5 -77t-58.5 -55l-24 20q19 13 30.5 31t14.5 39z" />
    <glyph glyph-name="Ncaron" unicode="&#x147;" horiz-adv-x="746" 
d="M663 690v-690h-98l-379 517v-517h-103v690h97l379 -524v524h104zM537 901l-114 -137h-102l-113 137h76l86 -89l85 89h82z" />
    <glyph glyph-name="ncaron" unicode="&#x148;" horiz-adv-x="619" 
d="M78 0v513h92v-93q31 48 80.5 75.5t109.5 27.5q92 0 139 -50t47 -147v-326h-98v316q0 60 -30.5 90.5t-89.5 30.5q-46 0 -87 -24.5t-66 -66.5v-346h-97zM473 725l-114 -137h-102l-113 137h76l86 -89l85 89h82z" />
    <glyph glyph-name="Omacron" unicode="&#x14c;" horiz-adv-x="796" 
d="M749 345q0 -154 -100 -254.5t-252 -100.5t-251.5 100.5t-99.5 253.5q0 154 100 255t252 101t251.5 -101t99.5 -254zM153 345q0 -117 67.5 -189t177.5 -72q109 0 176.5 72t67.5 189q0 116 -67.5 188t-176.5 72q-110 0 -177.5 -72t-67.5 -188zM549 871v-76h-303v76h303z
" />
    <glyph glyph-name="omacron" unicode="&#x14d;" horiz-adv-x="621" 
d="M41 256q0 115 76.5 191t192.5 76t193 -75.5t77 -191.5q0 -115 -77 -190.5t-193 -75.5q-115 0 -192 75.5t-77 190.5zM140 256q0 -82 47.5 -133t122.5 -51t122.5 51t47.5 133t-47 133t-123 51t-123 -51t-47 -133zM461 695v-76h-303v76h303z" />
    <glyph glyph-name="Obreve" unicode="&#x14e;" horiz-adv-x="796" 
d="M749 345q0 -154 -100 -254.5t-252 -100.5t-251.5 100.5t-99.5 253.5q0 154 100 255t252 101t251.5 -101t99.5 -254zM153 345q0 -117 67.5 -189t177.5 -72q109 0 176.5 72t67.5 189q0 116 -67.5 188t-176.5 72q-110 0 -177.5 -72t-67.5 -188zM298 900q10 -38 33 -56.5
t61 -18.5t61 18t34 57h65q-8 -63 -50.5 -100t-109.5 -37t-109.5 37t-49.5 100h65z" />
    <glyph glyph-name="obreve" unicode="&#x14f;" horiz-adv-x="621" 
d="M41 256q0 115 76.5 191t192.5 76t193 -75.5t77 -191.5q0 -115 -77 -190.5t-193 -75.5q-115 0 -192 75.5t-77 190.5zM140 256q0 -82 47.5 -133t122.5 -51t122.5 51t47.5 133t-47 133t-123 51t-123 -51t-47 -133zM210 724q10 -38 33 -56.5t61 -18.5t61 18t34 57h65
q-8 -63 -50.5 -100t-109.5 -37t-109.5 37t-49.5 100h65z" />
    <glyph glyph-name="Ohungarumlaut" unicode="&#x150;" horiz-adv-x="796" 
d="M749 345q0 -154 -100 -254.5t-252 -100.5t-251.5 100.5t-99.5 253.5q0 154 100 255t252 101t251.5 -101t99.5 -254zM153 345q0 -117 67.5 -189t177.5 -72q109 0 176.5 72t67.5 189q0 116 -67.5 188t-176.5 72q-110 0 -177.5 -72t-67.5 -188zM626 901l-125 -137h-86
l103 137h108zM444 901l-125 -137h-87l104 137h108z" />
    <glyph glyph-name="ohungarumlaut" unicode="&#x151;" horiz-adv-x="621" 
d="M41 256q0 115 76.5 191t192.5 76t193 -75.5t77 -191.5q0 -115 -77 -190.5t-193 -75.5q-115 0 -192 75.5t-77 190.5zM140 256q0 -82 47.5 -133t122.5 -51t122.5 51t47.5 133t-47 133t-123 51t-123 -51t-47 -133zM540 725l-125 -137h-86l103 137h108zM358 725l-125 -137
h-87l104 137h108z" />
    <glyph glyph-name="OE" unicode="&#x152;" horiz-adv-x="1149" 
d="M398 605q-110 0 -177.5 -72t-67.5 -188q0 -117 67.5 -189t177.5 -72q109 0 176.5 72t67.5 189q0 116 -67.5 188t-176.5 72zM1100 91v-91h-458v116q-41 -61 -104.5 -93.5t-142.5 -32.5q-151 0 -250 100.5t-99 253.5q0 154 100 255t252 101q77 0 140.5 -33t103.5 -93v116
h458v-92h-354v-200h262v-92h-262v-215h354z" />
    <glyph glyph-name="oe" unicode="&#x153;" horiz-adv-x="1013" 
d="M769 70q44 0 88.5 12.5t75.5 33.5v-82q-29 -20 -73.5 -32t-92.5 -12q-78 0 -140 33.5t-96 93.5q-32 -59 -91 -93t-130 -34q-115 0 -192 75.5t-77 190.5t76.5 191t192.5 76q70 0 128 -32t90 -88q30 56 86.5 88t126.5 32q103 0 168.5 -66t66.5 -170q0 -17 -1 -33t-3 -25
h-391q7 -73 58 -116t130 -43zM882 297q0 67 -40 107.5t-104 40.5q-63 0 -106 -40t-51 -108h301zM140 256q0 -82 47.5 -133t122.5 -51t122.5 51t47.5 133t-47 133t-123 51t-123 -51t-47 -133z" />
    <glyph glyph-name="Racute" unicode="&#x154;" horiz-adv-x="653" 
d="M351 598h-165v-225h165q61 0 98 31.5t37 82.5q0 50 -37 80.5t-98 30.5zM83 0v690h268q105 0 174 -56.5t69 -143.5q0 -70 -42.5 -121.5t-111.5 -71.5l185 -297h-121l-168 284h-150v-284h-103zM457 901l-123 -137h-88l102 137h109z" />
    <glyph glyph-name="racute" unicode="&#x155;" horiz-adv-x="384" 
d="M175 421q17 48 52 75t78 27q14 0 28 -3t27 -9v-93q-12 6 -29.5 9.5t-34.5 3.5q-39 0 -70.5 -23.5t-50.5 -65.5v-342h-97v513h97v-92zM324 725l-123 -137h-88l102 137h109z" />
    <glyph glyph-name="Rcommaaccent" unicode="&#x156;" horiz-adv-x="653" 
d="M351 598h-165v-225h165q61 0 98 31.5t37 82.5q0 50 -37 80.5t-98 30.5zM83 0v690h268q105 0 174 -56.5t69 -143.5q0 -70 -42.5 -121.5t-111.5 -71.5l185 -297h-121l-168 284h-150v-284h-103zM322 -175h-43v111h100v-69q0 -44 -19.5 -77t-58.5 -55l-24 20q19 13 30.5 31
t14.5 39z" />
    <glyph glyph-name="rcommaaccent" unicode="&#x157;" horiz-adv-x="384" 
d="M175 421q17 48 52 75t78 27q14 0 28 -3t27 -9v-93q-12 6 -29.5 9.5t-34.5 3.5q-39 0 -70.5 -23.5t-50.5 -65.5v-342h-97v513h97v-92zM123 -175h-43v111h100v-69q0 -44 -19.5 -77t-58.5 -55l-24 20q19 13 30.5 31t14.5 39z" />
    <glyph glyph-name="Rcaron" unicode="&#x158;" horiz-adv-x="653" 
d="M351 598h-165v-225h165q61 0 98 31.5t37 82.5q0 50 -37 80.5t-98 30.5zM83 0v690h268q105 0 174 -56.5t69 -143.5q0 -70 -42.5 -121.5t-111.5 -71.5l185 -297h-121l-168 284h-150v-284h-103zM480 901l-114 -137h-102l-113 137h76l86 -89l85 89h82z" />
    <glyph glyph-name="rcaron" unicode="&#x159;" horiz-adv-x="384" 
d="M175 421q17 48 52 75t78 27q14 0 28 -3t27 -9v-93q-12 6 -29.5 9.5t-34.5 3.5q-39 0 -70.5 -23.5t-50.5 -65.5v-342h-97v513h97v-92zM376 725l-114 -137h-102l-113 137h76l86 -89l85 89h82z" />
    <glyph glyph-name="Sacute" unicode="&#x15a;" horiz-adv-x="590" 
d="M552 189q0 -91 -75 -145t-197 -54q-69 0 -129.5 15t-104.5 43v102q58 -35 118.5 -52t123.5 -17q74 0 115 26.5t41 74.5q0 41 -35 68.5t-135 59.5q-121 39 -173.5 86.5t-52.5 115.5q0 84 71 136t187 52q58 0 107.5 -10.5t91.5 -32.5v-96q-48 23 -100.5 35t-103.5 12
q-68 0 -107 -24t-39 -66q0 -36 33.5 -60t145.5 -62q120 -40 169 -86.5t49 -120.5zM428 901l-123 -137h-88l102 137h109z" />
    <glyph glyph-name="sacute" unicode="&#x15b;" horiz-adv-x="474" 
d="M407 401q-34 19 -74.5 30t-81.5 11q-53 0 -82 -17t-29 -48q0 -24 22.5 -39t105.5 -38q98 -28 135.5 -62.5t37.5 -92.5q0 -74 -56 -114.5t-152 -40.5q-55 0 -101.5 11t-80.5 32v88q36 -24 84.5 -37.5t101.5 -13.5q51 0 79 17.5t28 51.5q0 28 -25.5 45.5t-115.5 43.5
q-87 26 -123 59t-36 86q0 68 56 109t148 41q45 0 85 -9t74 -26v-87zM368 725l-123 -137h-88l102 137h109z" />
    <glyph glyph-name="Scircumflex" unicode="&#x15c;" horiz-adv-x="590" 
d="M552 189q0 -91 -75 -145t-197 -54q-69 0 -129.5 15t-104.5 43v102q58 -35 118.5 -52t123.5 -17q74 0 115 26.5t41 74.5q0 41 -35 68.5t-135 59.5q-121 39 -173.5 86.5t-52.5 115.5q0 84 71 136t187 52q58 0 107.5 -10.5t91.5 -32.5v-96q-48 23 -100.5 35t-103.5 12
q-68 0 -107 -24t-39 -66q0 -36 33.5 -60t145.5 -62q120 -40 169 -86.5t49 -120.5zM345 901l114 -137h-82l-85 90l-86 -90h-76l113 137h102z" />
    <glyph glyph-name="scircumflex" unicode="&#x15d;" horiz-adv-x="474" 
d="M407 401q-34 19 -74.5 30t-81.5 11q-53 0 -82 -17t-29 -48q0 -24 22.5 -39t105.5 -38q98 -28 135.5 -62.5t37.5 -92.5q0 -74 -56 -114.5t-152 -40.5q-55 0 -101.5 11t-80.5 32v88q36 -24 84.5 -37.5t101.5 -13.5q51 0 79 17.5t28 51.5q0 28 -25.5 45.5t-115.5 43.5
q-87 26 -123 59t-36 86q0 68 56 109t148 41q45 0 85 -9t74 -26v-87zM288 725l114 -137h-82l-85 90l-86 -90h-76l113 137h102z" />
    <glyph glyph-name="Scedilla" unicode="&#x15e;" horiz-adv-x="590" 
d="M289 -209q-26 0 -46 4t-44 14v50q26 -11 44.5 -15.5t39.5 -4.5q25 0 38.5 8.5t13.5 25.5q0 16 -12.5 24.5t-35.5 8.5h-49l17 84q-61 3 -115 18t-94 40v102q58 -35 118.5 -52t123.5 -17q74 0 115 26.5t41 74.5q0 41 -35 68.5t-135 59.5q-121 39 -173.5 86.5t-52.5 115.5
q0 84 71 136t187 52q58 0 107.5 -10.5t91.5 -32.5v-96q-48 23 -100.5 35t-103.5 12q-68 0 -107 -24t-39 -66q0 -36 33.5 -60t145.5 -62q120 -40 169 -86.5t49 -120.5q0 -88 -70 -141.5t-184 -57.5l-9 -43h20q43 0 68 -19t25 -52q0 -38 -31 -61.5t-82 -23.5z" />
    <glyph glyph-name="scedilla" unicode="&#x15f;" horiz-adv-x="474" 
d="M234 -209q-26 0 -46 4t-44 14v50q26 -11 44.5 -15.5t39.5 -4.5q25 0 38.5 8.5t13.5 25.5q0 16 -12.5 24.5t-36.5 8.5h-48l17 85q-45 3 -82.5 13.5t-66.5 28.5v88q36 -24 84.5 -37.5t101.5 -13.5q51 0 79 17.5t28 51.5q0 28 -25.5 45.5t-115.5 43.5q-87 26 -123 59t-36 86
q0 68 56 109t148 41q45 0 85 -9t74 -26v-87q-34 19 -74.5 30t-81.5 11q-53 0 -82 -17t-29 -48q0 -24 22.5 -39t105.5 -38q98 -28 135.5 -62.5t37.5 -92.5q0 -72 -53.5 -112.5t-144.5 -42.5l-9 -43h20q43 0 68 -19t25 -52q0 -38 -31 -61.5t-82 -23.5z" />
    <glyph glyph-name="Scaron" unicode="&#x160;" horiz-adv-x="590" 
d="M552 189q0 -91 -75 -145t-197 -54q-69 0 -129.5 15t-104.5 43v102q58 -35 118.5 -52t123.5 -17q74 0 115 26.5t41 74.5q0 41 -35 68.5t-135 59.5q-121 39 -173.5 86.5t-52.5 115.5q0 84 71 136t187 52q58 0 107.5 -10.5t91.5 -32.5v-96q-48 23 -100.5 35t-103.5 12
q-68 0 -107 -24t-39 -66q0 -36 33.5 -60t145.5 -62q120 -40 169 -86.5t49 -120.5zM459 901l-114 -137h-102l-113 137h76l86 -89l85 89h82z" />
    <glyph glyph-name="scaron" unicode="&#x161;" horiz-adv-x="474" 
d="M407 401q-34 19 -74.5 30t-81.5 11q-53 0 -82 -17t-29 -48q0 -24 22.5 -39t105.5 -38q98 -28 135.5 -62.5t37.5 -92.5q0 -74 -56 -114.5t-152 -40.5q-55 0 -101.5 11t-80.5 32v88q36 -24 84.5 -37.5t101.5 -13.5q51 0 79 17.5t28 51.5q0 28 -25.5 45.5t-115.5 43.5
q-87 26 -123 59t-36 86q0 68 56 109t148 41q45 0 85 -9t74 -26v-87zM398 725l-114 -137h-102l-113 137h76l86 -89l85 89h82z" />
    <glyph glyph-name="uni0162" unicode="&#x162;" horiz-adv-x="604" 
d="M250 0v598h-226v92h556v-92h-226v-598h-104zM299 -175h-43v111h100v-69q0 -44 -19.5 -77t-58.5 -55l-24 20q19 13 30.5 31t14.5 39z" />
    <glyph glyph-name="uni0163" unicode="&#x163;" horiz-adv-x="358" 
d="M257 78q14 0 29 2.5t33 8.5v-86q-22 -6 -43 -9.5t-37 -3.5q-79 0 -116.5 39t-37.5 121v285h-76v78h76v115l98 16v-131h134v-77h-134v-273q0 -43 17.5 -64t56.5 -21zM174 -175h-43v111h100v-69q0 -44 -19.5 -77t-58.5 -55l-24 20q19 13 30.5 31t14.5 39z" />
    <glyph glyph-name="Tcaron" unicode="&#x164;" horiz-adv-x="604" 
d="M250 0v598h-226v92h556v-92h-226v-598h-104zM466 901l-114 -137h-102l-113 137h76l86 -89l85 89h82z" />
    <glyph glyph-name="tcaron" unicode="&#x165;" horiz-adv-x="358" 
d="M270 653h-43v112h100v-70q0 -49 -18.5 -84t-56.5 -60l-25 20q18 16 29 36.5t14 45.5zM257 78q14 0 29 2.5t33 8.5v-86q-22 -6 -43 -9.5t-37 -3.5q-79 0 -116.5 39t-37.5 121v285h-76v78h76v115l98 16v-131h134v-77h-134v-273q0 -43 17.5 -64t56.5 -21z" />
    <glyph glyph-name="Tbar" unicode="&#x166;" horiz-adv-x="604" 
d="M250 0v320h-135v77h135v201h-226v92h556v-92h-226v-201h135v-77h-135v-320h-104z" />
    <glyph glyph-name="tbar" unicode="&#x167;" horiz-adv-x="358" 
d="M239 -10q-79 0 -116.5 39t-37.5 121v114h-76v70h76v108h-76v71h76v115l98 16v-131h134v-70h-134v-109h134v-70h-134v-101q0 -43 17.5 -64t56.5 -21q14 0 29 2.5t33 8.5v-86q-22 -6 -43 -9.5t-37 -3.5z" />
    <glyph glyph-name="Utilde" unicode="&#x168;" horiz-adv-x="724" 
d="M361 84q84 0 132.5 48.5t48.5 131.5v426h104v-428q0 -123 -78 -197.5t-207 -74.5q-128 0 -205.5 76t-77.5 200v424h103v-426q0 -83 48.5 -131.5t131.5 -48.5zM285 899q21 0 40.5 -7.5t50.5 -30.5q23 -18 35.5 -23.5t24.5 -5.5q20 0 32.5 17t14.5 47h63q-1 -54 -31 -90.5
t-76 -36.5q-23 0 -43 8t-51 32q-21 17 -31.5 22t-20.5 5q-21 0 -34.5 -17.5t-16.5 -48.5h-63q2 60 30 94.5t76 34.5z" />
    <glyph glyph-name="utilde" unicode="&#x169;" horiz-adv-x="604" 
d="M526 513v-513h-92v94q-32 -51 -78 -77.5t-102 -26.5q-89 0 -135 49t-46 143v331h97v-319q0 -60 29 -89.5t87 -29.5q42 0 79.5 24.5t62.5 68.5v345h98zM225 723q21 0 40.5 -7.5t50.5 -30.5q23 -18 35.5 -23.5t24.5 -5.5q20 0 32.5 17t14.5 47h63q-1 -54 -31 -90.5
t-76 -36.5q-23 0 -43 8t-51 32q-21 17 -31.5 22t-20.5 5q-21 0 -34.5 -17.5t-16.5 -48.5h-63q2 60 30 94.5t76 34.5z" />
    <glyph glyph-name="Umacron" unicode="&#x16a;" horiz-adv-x="724" 
d="M361 84q84 0 132.5 48.5t48.5 131.5v426h104v-428q0 -123 -78 -197.5t-207 -74.5q-128 0 -205.5 76t-77.5 200v424h103v-426q0 -83 48.5 -131.5t131.5 -48.5zM513 871v-76h-303v76h303z" />
    <glyph glyph-name="umacron" unicode="&#x16b;" horiz-adv-x="604" 
d="M526 513v-513h-92v94q-32 -51 -78 -77.5t-102 -26.5q-89 0 -135 49t-46 143v331h97v-319q0 -60 29 -89.5t87 -29.5q42 0 79.5 24.5t62.5 68.5v345h98zM453 695v-76h-303v76h303z" />
    <glyph glyph-name="Ubreve" unicode="&#x16c;" horiz-adv-x="724" 
d="M361 84q84 0 132.5 48.5t48.5 131.5v426h104v-428q0 -123 -78 -197.5t-207 -74.5q-128 0 -205.5 76t-77.5 200v424h103v-426q0 -83 48.5 -131.5t131.5 -48.5zM262 900q10 -38 33 -56.5t61 -18.5t61 18t34 57h65q-8 -63 -50.5 -100t-109.5 -37t-109.5 37t-49.5 100h65z
" />
    <glyph glyph-name="ubreve" unicode="&#x16d;" horiz-adv-x="604" 
d="M526 513v-513h-92v94q-32 -51 -78 -77.5t-102 -26.5q-89 0 -135 49t-46 143v331h97v-319q0 -60 29 -89.5t87 -29.5q42 0 79.5 24.5t62.5 68.5v345h98zM202 724q10 -38 33 -56.5t61 -18.5t61 18t34 57h65q-8 -63 -50.5 -100t-109.5 -37t-109.5 37t-49.5 100h65z" />
    <glyph glyph-name="Uring" unicode="&#x16e;" horiz-adv-x="724" 
d="M361 84q84 0 132.5 48.5t48.5 131.5v426h104v-428q0 -123 -78 -197.5t-207 -74.5q-128 0 -205.5 76t-77.5 200v424h103v-426q0 -83 48.5 -131.5t131.5 -48.5zM362 745q-46 0 -77 30t-31 75q0 46 30.5 75.5t77.5 29.5q46 0 76.5 -30.5t30.5 -74.5q0 -45 -30.5 -75
t-76.5 -30zM362 903q-23 0 -37.5 -14.5t-14.5 -37.5q0 -24 14.5 -39t37.5 -15t37.5 15t14.5 39q0 23 -14.5 37.5t-37.5 14.5z" />
    <glyph glyph-name="uring" unicode="&#x16f;" horiz-adv-x="604" 
d="M526 513v-513h-92v94q-32 -51 -78 -77.5t-102 -26.5q-89 0 -135 49t-46 143v331h97v-319q0 -60 29 -89.5t87 -29.5q42 0 79.5 24.5t62.5 68.5v345h98zM302 569q-46 0 -77 30t-31 75q0 46 30.5 75.5t77.5 29.5q46 0 76.5 -30.5t30.5 -74.5q0 -45 -30.5 -75t-76.5 -30z
M302 727q-23 0 -37.5 -14.5t-14.5 -37.5q0 -24 14.5 -39t37.5 -15t37.5 15t14.5 39q0 23 -14.5 37.5t-37.5 14.5z" />
    <glyph glyph-name="Uhungarumlaut" unicode="&#x170;" horiz-adv-x="724" 
d="M361 84q84 0 132.5 48.5t48.5 131.5v426h104v-428q0 -123 -78 -197.5t-207 -74.5q-128 0 -205.5 76t-77.5 200v424h103v-426q0 -83 48.5 -131.5t131.5 -48.5zM590 901l-125 -137h-86l103 137h108zM408 901l-125 -137h-87l104 137h108z" />
    <glyph glyph-name="uhungarumlaut" unicode="&#x171;" horiz-adv-x="604" 
d="M526 513v-513h-92v94q-32 -51 -78 -77.5t-102 -26.5q-89 0 -135 49t-46 143v331h97v-319q0 -60 29 -89.5t87 -29.5q42 0 79.5 24.5t62.5 68.5v345h98zM536 725l-125 -137h-86l103 137h108zM354 725l-125 -137h-87l104 137h108z" />
    <glyph glyph-name="Uogonek" unicode="&#x172;" horiz-adv-x="724" 
d="M511 -184q-24 -15 -46 -21t-50 -6q-52 0 -86 25.5t-34 65.5q0 30 19 57t58 53h-11q-128 0 -205.5 76t-77.5 200v424h103v-426q0 -83 48.5 -131.5t131.5 -48.5q84 0 132.5 48.5t48.5 131.5v426h104v-428q0 -97 -50 -165.5t-139 -93.5q-49 -32 -68.5 -56.5t-19.5 -49.5
q0 -24 17.5 -37.5t46.5 -13.5q19 0 40 7.5t38 20.5v-58z" />
    <glyph glyph-name="uogonek" unicode="&#x173;" horiz-adv-x="604" 
d="M453 -154q19 0 40 7.5t38 20.5v-58q-24 -15 -46 -21t-50 -6q-52 0 -86 25.5t-34 65.5q0 36 29 68.5t90 63.5v82q-32 -51 -78 -77.5t-102 -26.5q-89 0 -135 49t-46 143v331h97v-319q0 -60 29 -89.5t87 -29.5q42 0 79.5 24.5t62.5 68.5v345h98v-513h-44q-51 -31 -72 -54.5
t-21 -48.5q0 -24 17.5 -37.5t46.5 -13.5z" />
    <glyph glyph-name="Wcircumflex" unicode="&#x174;" horiz-adv-x="1013" 
d="M562 563l151 -452l187 579h104l-230 -690h-120l-148 436l-153 -436h-114l-230 690h110l185 -579l158 452h100zM563 901l114 -137h-82l-85 90l-86 -90h-76l113 137h102z" />
    <glyph glyph-name="wcircumflex" unicode="&#x175;" horiz-adv-x="843" 
d="M743 513h89l-182 -513h-110l-123 379l-121 -379h-102l-183 513h103l139 -416l131 416h85l133 -416zM471 725l114 -137h-82l-85 90l-86 -90h-76l113 137h102z" />
    <glyph glyph-name="Ycircumflex" unicode="&#x176;" horiz-adv-x="668" 
d="M386 0h-104v282l-271 408h110l210 -317l211 317h115l-271 -408v-282zM384 901l114 -137h-82l-85 90l-86 -90h-76l113 137h102z" />
    <glyph glyph-name="ycircumflex" unicode="&#x177;" horiz-adv-x="561" 
d="M90 -214q-12 0 -24 2t-22 5v81q10 -2 20 -3.5t20 -1.5q46 0 85 32.5t69 96.5l-226 515h99l173 -406l167 406h98l-211 -491q-55 -127 -113.5 -181.5t-134.5 -54.5zM330 725l114 -137h-82l-85 90l-86 -90h-76l113 137h102z" />
    <glyph glyph-name="Ydieresis" unicode="&#x178;" horiz-adv-x="668" 
d="M386 0h-104v282l-271 408h110l210 -317l211 317h115l-271 -408v-282zM463 903v-133h-84v133h84zM288 903v-133h-84v133h84z" />
    <glyph glyph-name="Zacute" unicode="&#x179;" horiz-adv-x="600" 
d="M561 91v-91h-522v83l385 508h-378v92h510v-84l-387 -508h392zM437 901l-123 -137h-88l102 137h109z" />
    <glyph glyph-name="zacute" unicode="&#x17a;" horiz-adv-x="491" 
d="M454 444l-296 -364h298v-80h-421v68l295 364h-289v81h413v-69zM383 725l-123 -137h-88l102 137h109z" />
    <glyph glyph-name="Zdotaccent" unicode="&#x17b;" horiz-adv-x="600" 
d="M561 91v-91h-522v83l385 508h-378v92h510v-84l-387 -508h392zM251 770v133h97v-133h-97z" />
    <glyph glyph-name="zdotaccent" unicode="&#x17c;" horiz-adv-x="491" 
d="M454 444l-296 -364h298v-80h-421v68l295 364h-289v81h413v-69zM197 594v133h97v-133h-97z" />
    <glyph glyph-name="Zcaron" unicode="&#x17d;" horiz-adv-x="600" 
d="M561 91v-91h-522v83l385 508h-378v92h510v-84l-387 -508h392zM464 901l-114 -137h-102l-113 137h76l86 -89l85 89h82z" />
    <glyph glyph-name="zcaron" unicode="&#x17e;" horiz-adv-x="491" 
d="M454 444l-296 -364h298v-80h-421v68l295 364h-289v81h413v-69zM414 725l-114 -137h-102l-113 137h76l86 -89l85 89h82z" />
    <glyph glyph-name="florin" unicode="&#x192;" horiz-adv-x="536" 
d="M235 491q19 104 70.5 156.5t134.5 52.5q19 0 34 -2.5t35 -9.5v-91q-14 5 -30 7.5t-30 2.5q-51 0 -78 -31t-39 -104l-16 -98h126l-10 -62h-128l-37 -232q-15 -93 -60 -141.5t-115 -48.5q-23 0 -41 3t-36 9v91q17 -5 33 -7t32 -2q37 0 58 23t29 75l39 230h-98l10 62h97z
" />
    <glyph glyph-name="uni0218" unicode="&#x218;" horiz-adv-x="590" 
d="M552 189q0 -91 -75 -145t-197 -54q-69 0 -129.5 15t-104.5 43v102q58 -35 118.5 -52t123.5 -17q74 0 115 26.5t41 74.5q0 41 -35 68.5t-135 59.5q-121 39 -173.5 86.5t-52.5 115.5q0 84 71 136t187 52q58 0 107.5 -10.5t91.5 -32.5v-96q-48 23 -100.5 35t-103.5 12
q-68 0 -107 -24t-39 -66q0 -36 33.5 -60t145.5 -62q120 -40 169 -86.5t49 -120.5zM289 -175h-43v111h100v-69q0 -44 -19.5 -77t-58.5 -55l-24 20q19 13 30.5 31t14.5 39z" />
    <glyph glyph-name="uni0219" unicode="&#x219;" horiz-adv-x="474" 
d="M407 401q-34 19 -74.5 30t-81.5 11q-53 0 -82 -17t-29 -48q0 -24 22.5 -39t105.5 -38q98 -28 135.5 -62.5t37.5 -92.5q0 -74 -56 -114.5t-152 -40.5q-55 0 -101.5 11t-80.5 32v88q36 -24 84.5 -37.5t101.5 -13.5q51 0 79 17.5t28 51.5q0 28 -25.5 45.5t-115.5 43.5
q-87 26 -123 59t-36 86q0 68 56 109t148 41q45 0 85 -9t74 -26v-87zM232 -175h-43v111h100v-69q0 -44 -19.5 -77t-58.5 -55l-24 20q19 13 30.5 31t14.5 39z" />
    <glyph glyph-name="uni021A" unicode="&#x21a;" horiz-adv-x="604" 
d="M250 0v598h-226v92h556v-92h-226v-598h-104zM299 -175h-43v111h100v-69q0 -44 -19.5 -77t-58.5 -55l-24 20q19 13 30.5 31t14.5 39z" />
    <glyph glyph-name="uni021B" unicode="&#x21b;" horiz-adv-x="358" 
d="M257 78q14 0 29 2.5t33 8.5v-86q-22 -6 -43 -9.5t-37 -3.5q-79 0 -116.5 39t-37.5 121v285h-76v78h76v115l98 16v-131h134v-77h-134v-273q0 -43 17.5 -64t56.5 -21zM174 -175h-43v111h100v-69q0 -44 -19.5 -77t-58.5 -55l-24 20q19 13 30.5 31t14.5 39z" />
    <glyph glyph-name="dotlessj" unicode="&#x237;" horiz-adv-x="261" 
d="M-21 -129q15 -1 20.5 -1.5t10.5 -0.5q38 0 56.5 23t18.5 69v552h98v-547q0 -87 -37.5 -133.5t-108.5 -46.5q-14 0 -28.5 2t-29.5 5v78z" />
    <glyph glyph-name="circumflex" unicode="&#x2c6;" 
d="M300 725l114 -137h-82l-85 90l-86 -90h-76l113 137h102z" />
    <glyph glyph-name="caron" unicode="&#x2c7;" 
d="M414 725l-114 -137h-102l-113 137h76l86 -89l85 89h82z" />
    <glyph glyph-name="breve" unicode="&#x2d8;" 
d="M150 724q10 -38 33 -56.5t61 -18.5t61 18t34 57h65q-8 -63 -50.5 -100t-109.5 -37t-109.5 37t-49.5 100h65z" />
    <glyph glyph-name="dotaccent" unicode="&#x2d9;" 
d="M201 594v133h97v-133h-97z" />
    <glyph glyph-name="ring" unicode="&#x2da;" 
d="M250 569q-46 0 -77 30t-31 75q0 46 30.5 75.5t77.5 29.5q46 0 76.5 -30.5t30.5 -74.5q0 -45 -30.5 -75t-76.5 -30zM250 727q-23 0 -37.5 -14.5t-14.5 -37.5q0 -24 14.5 -39t37.5 -15t37.5 15t14.5 39q0 23 -14.5 37.5t-37.5 14.5z" />
    <glyph glyph-name="ogonek" unicode="&#x2db;" 
d="M402 31q-85 -49 -113 -77t-28 -57q0 -23 18 -37t47 -14q19 0 39.5 7.5t38.5 20.5v-58q-25 -15 -47 -21t-49 -6q-52 0 -86 25.5t-34 65.5t36.5 76t123.5 75h54z" />
    <glyph glyph-name="tilde" unicode="&#x2dc;" 
d="M173 723q21 0 40.5 -7.5t50.5 -30.5q23 -18 35.5 -23.5t24.5 -5.5q20 0 32.5 17t14.5 47h63q-1 -54 -31 -90.5t-76 -36.5q-23 0 -43 8t-51 32q-21 17 -31.5 22t-20.5 5q-21 0 -34.5 -17.5t-16.5 -48.5h-63q2 60 30 94.5t76 34.5z" />
    <glyph glyph-name="hungarumlaut" unicode="&#x2dd;" 
d="M468 725l-125 -137h-86l103 137h108zM286 725l-125 -137h-87l104 137h108z" />
    <glyph glyph-name="uni0394" unicode="&#x394;" horiz-adv-x="708" 
d="M312 690h82l300 -690h-680zM552 91l-199 465l-197 -465h396z" />
    <glyph glyph-name="uni03A9" unicode="&#x3a9;" horiz-adv-x="783" 
d="M344 0h-282v85h167q-90 38 -137 110.5t-47 171.5q0 141 99.5 237t247.5 96t247 -96t99 -237q0 -99 -46.5 -171.5t-135.5 -110.5h165v-85h-278v85q92 36 142.5 105t50.5 159q0 114 -68 185t-176 71t-176 -71t-68 -185q0 -91 51 -160t145 -104v-85z" />
    <glyph glyph-name="pi" unicode="&#x3c0;" horiz-adv-x="736" 
d="M575 -10q-59 0 -90 37.5t-31 109.5v295h-128l-32 -432h-94l33 432h-43q-37 0 -56 -14t-19 -40q0 -13 3 -28t9 -28h-77q-8 20 -12 41t-4 40q0 53 39.5 81.5t112.5 28.5h502v-81h-137v-292q0 -32 11.5 -49t34.5 -17q15 0 29.5 6.5t26.5 18.5l37 -65q-24 -22 -53.5 -33
t-61.5 -11z" />
    <glyph glyph-name="Wgrave" unicode="&#x1e80;" horiz-adv-x="1013" 
d="M562 563l151 -452l187 579h104l-230 -690h-120l-148 436l-153 -436h-114l-230 690h110l185 -579l158 452h100zM484 764l-123 137h109l101 -137h-87z" />
    <glyph glyph-name="wgrave" unicode="&#x1e81;" horiz-adv-x="843" 
d="M743 513h89l-182 -513h-110l-123 379l-121 -379h-102l-183 513h103l139 -416l131 416h85l133 -416zM404 588l-123 137h109l101 -137h-87z" />
    <glyph glyph-name="Wacute" unicode="&#x1e82;" horiz-adv-x="1013" 
d="M562 563l151 -452l187 579h104l-230 -690h-120l-148 436l-153 -436h-114l-230 690h110l185 -579l158 452h100zM651 901l-123 -137h-88l102 137h109z" />
    <glyph glyph-name="wacute" unicode="&#x1e83;" horiz-adv-x="843" 
d="M743 513h89l-182 -513h-110l-123 379l-121 -379h-102l-183 513h103l139 -416l131 416h85l133 -416zM568 725l-123 -137h-88l102 137h109z" />
    <glyph glyph-name="Wdieresis" unicode="&#x1e84;" horiz-adv-x="1013" 
d="M562 563l151 -452l187 579h104l-230 -690h-120l-148 436l-153 -436h-114l-230 690h110l185 -579l158 452h100zM642 903v-133h-84v133h84zM467 903v-133h-84v133h84z" />
    <glyph glyph-name="wdieresis" unicode="&#x1e85;" horiz-adv-x="843" 
d="M743 513h89l-182 -513h-110l-123 379l-121 -379h-102l-183 513h103l139 -416l131 416h85l133 -416zM550 727v-133h-84v133h84zM375 727v-133h-84v133h84z" />
    <glyph glyph-name="Ygrave" unicode="&#x1ef2;" horiz-adv-x="668" 
d="M386 0h-104v282l-271 408h110l210 -317l211 317h115l-271 -408v-282zM313 764l-123 137h109l101 -137h-87z" />
    <glyph glyph-name="ygrave" unicode="&#x1ef3;" horiz-adv-x="561" 
d="M90 -214q-12 0 -24 2t-22 5v81q10 -2 20 -3.5t20 -1.5q46 0 85 32.5t69 96.5l-226 515h99l173 -406l167 406h98l-211 -491q-55 -127 -113.5 -181.5t-134.5 -54.5zM266 588l-123 137h109l101 -137h-87z" />
    <glyph glyph-name="endash" unicode="&#x2013;" 
d="M455 307v-76h-410v76h410z" />
    <glyph glyph-name="emdash" unicode="&#x2014;" horiz-adv-x="1000" 
d="M955 307v-76h-910v76h910z" />
    <glyph glyph-name="quoteleft" unicode="&#x2018;" horiz-adv-x="219" 
d="M115 586h48v-122h-108v84q0 54 31.5 96.5t85.5 61.5v-45q-25 -13 -38.5 -31t-18.5 -44z" />
    <glyph glyph-name="quoteright" unicode="&#x2019;" horiz-adv-x="219" 
d="M103 568h-48v122h108v-84q0 -54 -31.5 -96.5t-85.5 -61.5v44q26 14 39.5 32.5t17.5 43.5z" />
    <glyph glyph-name="quotesinglbase" unicode="&#x201a;" horiz-adv-x="219" 
d="M103 0h-48v121h108v-83q0 -54 -31.5 -96t-85.5 -61v44q26 14 39.5 32t17.5 43z" />
    <glyph glyph-name="quotedblleft" unicode="&#x201c;" horiz-adv-x="395" 
d="M291 586h48v-122h-108v84q0 54 31.5 96.5t85.5 61.5v-45q-25 -13 -38.5 -31t-18.5 -44zM115 586h48v-122h-108v84q0 54 31.5 96.5t85.5 61.5v-45q-25 -13 -38.5 -31t-18.5 -44z" />
    <glyph glyph-name="quotedblright" unicode="&#x201d;" horiz-adv-x="395" 
d="M279 568h-48v122h108v-84q0 -54 -31.5 -96.5t-85.5 -61.5v44q26 14 39.5 32.5t17.5 43.5zM103 568h-48v122h108v-84q0 -54 -31.5 -96.5t-85.5 -61.5v44q26 14 39.5 32.5t17.5 43.5z" />
    <glyph glyph-name="quotedblbase" unicode="&#x201e;" horiz-adv-x="398" 
d="M282 0h-48v121h108v-83q0 -54 -31.5 -96t-85.5 -61v44q26 15 39.5 33t17.5 42zM103 0h-48v121h108v-83q0 -54 -31.5 -96t-85.5 -61v44q26 14 39.5 32t17.5 43z" />
    <glyph glyph-name="dagger" unicode="&#x2020;" horiz-adv-x="551" 
d="M320 -125h-89v504l-177 -10v94l177 -8v235h89v-235l176 8v-94l-176 10v-504z" />
    <glyph glyph-name="daggerdbl" unicode="&#x2021;" horiz-adv-x="551" 
d="M320 -125h-89v225l-177 -10v94l177 -8v214l-177 -10v94l177 -8v224h89v-224l176 8v-94l-176 10v-214l176 8v-94l-176 10v-225z" />
    <glyph glyph-name="bullet" unicode="&#x2022;" horiz-adv-x="295" 
d="M50 309q0 42 27.5 69.5t70.5 27.5q42 0 69.5 -27.5t27.5 -69.5q0 -44 -27 -71.5t-70 -27.5t-70.5 27.5t-27.5 71.5z" />
    <glyph glyph-name="ellipsis" unicode="&#x2026;" horiz-adv-x="658" 
d="M602 0h-108v121h108v-121zM383 0h-109v121h109v-121zM163 0h-108v121h108v-121z" />
    <glyph glyph-name="perthousand" unicode="&#x2030;" horiz-adv-x="1335" 
d="M376 501q0 -88 -47.5 -143t-123.5 -55q-77 0 -124 54.5t-47 143.5t47.5 144t123.5 55t123.5 -55t47.5 -144zM112 501q0 -62 24 -95t69 -33t69 33t24 95q0 61 -24 94t-69 33t-69 -33t-24 -94zM695 690l-388 -690h-78l392 690h74zM889 197q0 -88 -47.5 -143t-123.5 -55
q-77 0 -124 54.5t-47 143.5t47.5 144t123.5 55t123.5 -55t47.5 -144zM625 197q0 -62 24 -95t69 -33t69 33t24 95q0 61 -24 94t-69 33t-69 -33t-24 -94zM1300 197q0 -88 -47.5 -143t-123.5 -55q-77 0 -124 54.5t-47 143.5t47.5 144t123.5 55t123.5 -55t47.5 -144zM1036 197
q0 -62 24 -95t69 -33t69 33t24 95q0 61 -24 94t-69 33t-69 -33t-24 -94z" />
    <glyph glyph-name="guilsinglleft" unicode="&#x2039;" horiz-adv-x="366" 
d="M304 71l-38 -38l-217 192v49l217 192l38 -39l-163 -178z" />
    <glyph glyph-name="guilsinglright" unicode="&#x203a;" horiz-adv-x="366" 
d="M61 427l39 39l216 -192v-49l-216 -192l-39 38l164 178z" />
    <glyph glyph-name="fraction" unicode="&#x2044;" horiz-adv-x="102" 
d="M284 690l-388 -690h-78l392 690h74z" />
    <glyph glyph-name="zerosuperior" unicode="&#x2070;" horiz-adv-x="411" 
d="M376 501q0 -88 -47.5 -143t-123.5 -55q-77 0 -124 54.5t-47 143.5t47.5 144t123.5 55t123.5 -55t47.5 -144zM112 501q0 -62 24 -95t69 -33t69 33t24 95q0 61 -24 94t-69 33t-69 -33t-24 -94z" />
    <glyph glyph-name="foursuperior" unicode="&#x2074;" horiz-adv-x="411" 
d="M51 433l143 258h77l-142 -256h120v73l72 40v-113h50v-64h-50v-66h-71v66h-199v62z" />
    <glyph glyph-name="Euro" unicode="&#x20ac;" horiz-adv-x="668" 
d="M444 -10q-125 0 -210.5 69.5t-111.5 186.5h-100l8 63h83q0 9 -0.5 18.5t-0.5 18.5q0 8 0.5 16.5t0.5 16.5h-73l8 63h74q26 118 114 188t218 70q48 0 86 -8t79 -29v-92q-43 18 -80 26t-76 8q-92 0 -151.5 -42.5t-80.5 -120.5h307l-9 -63h-309q0 -8 -0.5 -16.5t-0.5 -16.5
q0 -10 0.5 -19t0.5 -18h299l-8 -63h-280q22 -79 82 -120.5t154 -41.5q43 0 81.5 9t75.5 28v-93q-42 -20 -85 -29t-95 -9z" />
    <glyph glyph-name="uni2113" unicode="&#x2113;" horiz-adv-x="553" 
d="M465 103q-32 -54 -79.5 -83.5t-104.5 -29.5q-73 0 -116 48.5t-51 141.5q-16 -10 -44 -25t-31 -16l-28 59q29 14 54.5 28.5t47.5 27.5q3 81 21 158t48 143q42 92 99.5 143.5t119.5 51.5q56 0 89.5 -36t33.5 -97q0 -98 -77.5 -190.5t-246.5 -196.5v-12q0 -77 24.5 -115.5
t72.5 -38.5q34 0 64 21.5t55 64.5zM209 313q118 76 177.5 149.5t59.5 142.5q0 32 -13.5 51t-36.5 19q-60 0 -116.5 -109t-70.5 -253z" />
    <glyph glyph-name="trademark" unicode="&#x2122;" horiz-adv-x="634" 
d="M115 418v226h-85v46h218v-46h-82v-226h-51zM348 690l90 -133l90 133h49v-272h-50v192l-73 -106h-33l-73 107v-193h-51v272h51z" />
    <glyph glyph-name="Omega" unicode="&#x2126;" horiz-adv-x="783" 
d="M344 0h-282v85h167q-90 38 -137 110.5t-47 171.5q0 141 99.5 237t247.5 96t247 -96t99 -237q0 -99 -46.5 -171.5t-135.5 -110.5h165v-85h-278v85q92 36 142.5 105t50.5 159q0 114 -68 185t-176 71t-176 -71t-68 -185q0 -91 51 -160t145 -104v-85z" />
    <glyph glyph-name="estimated" unicode="&#x212e;" horiz-adv-x="824" 
d="M430 635q149 0 254.5 -95t105.5 -229v-9h-583q-3 0 -4 -1t-1 -3v-176q0 -6 2 -11t6 -9q44 -46 101 -71t120 -25q67 0 127 28t105 79h52q-51 -59 -126 -92.5t-159 -33.5q-149 0 -254.5 95t-105.5 229t105.5 229t254.5 95zM654 320q2 0 3 1.5t1 3.5v178q0 6 -2 11.5t-7 9.5
q-44 44 -100.5 68t-117.5 24q-62 0 -119 -24.5t-101 -70.5q-5 -5 -7 -10t-2 -12v-174q0 -2 1.5 -3.5t3.5 -1.5h447z" />
    <glyph glyph-name="partialdiff" unicode="&#x2202;" horiz-adv-x="625" 
d="M288 523q54 0 98.5 -22t76.5 -66q-17 61 -69 124t-133 120l52 61q137 -93 201 -202.5t64 -245.5q0 -133 -75.5 -217.5t-191.5 -84.5q-118 0 -194 75t-76 190q0 113 72.5 190.5t174.5 77.5zM478 264q0 74 -48 122t-120 48q-74 0 -121.5 -50t-47.5 -128t47.5 -128
t121.5 -50q75 0 121.5 51t46.5 135z" />
    <glyph glyph-name="Delta" unicode="&#x2206;" horiz-adv-x="708" 
d="M312 690h82l300 -690h-680zM552 91l-199 465l-197 -465h396z" />
    <glyph glyph-name="product" unicode="&#x220f;" horiz-adv-x="718" 
d="M186 -150h-103v840h552v-840h-103v748h-346v-748z" />
    <glyph glyph-name="summation" unicode="&#x2211;" horiz-adv-x="561" 
d="M271 253l-231 351v86h483v-92h-361l225 -345l-225 -311h361v-92h-483v86z" />
    <glyph glyph-name="minus" unicode="&#x2212;" horiz-adv-x="571" 
d="M526 304h-482v76h482v-76z" />
    <glyph glyph-name="uni2215" unicode="&#x2215;" horiz-adv-x="102" 
d="M284 690l-388 -690h-78l392 690h74z" />
    <glyph glyph-name="radical" unicode="&#x221a;" horiz-adv-x="568" 
d="M466 740l85 -24l-266 -716h-90l-101 250h-70v91h132l87 -228z" />
    <glyph glyph-name="infinity" unicode="&#x221e;" horiz-adv-x="801" 
d="M217 160q-77 0 -124.5 43.5t-47.5 113.5q0 67 47 113.5t114 46.5q52 0 95.5 -24.5t94.5 -87.5q50 63 93.5 87.5t94.5 24.5q67 0 113.5 -46.5t46.5 -113.5q0 -70 -47 -113.5t-124 -43.5q-50 0 -95.5 26.5t-82.5 76.5q-38 -50 -83 -76.5t-95 -26.5zM670 317
q0 41 -26.5 66.5t-70.5 25.5q-37 0 -74.5 -24t-68.5 -68q35 -49 68 -70.5t71 -21.5q43 0 72 26t29 66zM359 314q-32 45 -70 70t-73 25q-43 0 -69.5 -25.5t-26.5 -66.5q0 -39 29 -65.5t71 -26.5q38 0 72 21.5t67 67.5z" />
    <glyph glyph-name="integral" unicode="&#x222b;" horiz-adv-x="547" 
d="M254 540q13 103 64.5 156.5t136.5 53.5q19 0 35 -2.5t35 -9.5v-91q-15 5 -31 7.5t-30 2.5q-52 0 -79.5 -32t-37.5 -103l-73 -540q-11 -92 -56.5 -142t-117.5 -50q-22 0 -40 3t-38 10v91q18 -5 34 -7t32 -2q37 0 59 24t29 75z" />
    <glyph glyph-name="approxequal" unicode="&#x2248;" horiz-adv-x="571" 
d="M158 423q-21 0 -42.5 -4t-71.5 -21v76q36 15 61 20t53 5q21 0 46 -4t76 -18q53 -14 79.5 -18.5t49.5 -4.5q29 0 59 8t58 24v-76q-43 -20 -68 -26t-52 -6q-24 0 -50.5 4.5t-77.5 18.5q-49 14 -73.5 18t-46.5 4zM158 245q-19 0 -39 -3.5t-75 -22.5v76q39 16 63.5 21t50.5 5
q21 0 46 -4t76 -18q53 -14 79.5 -18.5t49.5 -4.5q29 0 59 8t58 24v-76q-38 -19 -64 -25.5t-56 -6.5q-24 0 -50.5 4.5t-77.5 18.5q-49 14 -73.5 18t-46.5 4z" />
    <glyph glyph-name="notequal" unicode="&#x2260;" horiz-adv-x="571" 
d="M125 77l62 138h-143v76h177l47 105h-224v75h257l64 142h81l-64 -142h144v-75h-178l-47 -105h225v-76h-259l-62 -138h-80z" />
    <glyph glyph-name="lessequal" unicode="&#x2264;" horiz-adv-x="571" 
d="M526 537l-377 -155l377 -156v-83l-482 199v80l482 197v-82zM526 0h-482v75h482v-75z" />
    <glyph glyph-name="greaterequal" unicode="&#x2265;" horiz-adv-x="571" 
d="M421 382l-377 155v82l482 -197v-80l-482 -199v83zM526 0h-482v75h482v-75z" />
    <glyph glyph-name="lozenge" unicode="&#x25ca;" horiz-adv-x="532" 
d="M222 690h86l189 -344l-189 -346h-86l-188 346zM127 346l138 -259l139 259l-139 256z" />
    <glyph glyph-name="heart" unicode="&#x2665;" horiz-adv-x="602" 
d="M100 395q0 46 28 75.5t71 29.5q30 0 56 -17.5t42 -47.5h8q16 30 42 47.5t56 17.5q43 0 71 -29.5t28 -75.5q0 -66 -56.5 -140.5t-144.5 -119.5q-88 45 -144.5 119.5t-56.5 140.5z" />
    <glyph glyph-name="i.dot" unicode="&#xe166;" horiz-adv-x="253" 
d="M78 594v133h97v-133h-97zM78 0v513h97v-513h-97z" />
    <glyph glyph-name="caron.alt" unicode="&#xe189;" 
d="M181 598h-43v112h100v-70q0 -50 -19 -86.5t-59 -63.5l-24 20q19 17 30.5 39.5t14.5 48.5z" />
    <glyph glyph-name="revcommaaccent" unicode="&#xe18a;" 
d="M252 694h43v-107h-100v65q0 45 19 79t58 57l25 -20q-18 -12 -29.5 -31.5t-15.5 -42.5z" />
    <glyph glyph-name="parenleft.case" unicode="&#xe1e8;" horiz-adv-x="366" 
d="M276 -109q-101 79 -159 198t-58 247q0 129 58 248.5t160 198.5l47 -39q-80 -90 -121 -193t-41 -215q0 -113 41 -216t121 -191z" />
    <glyph glyph-name="parenright.case" unicode="&#xe1e9;" horiz-adv-x="366" 
d="M203 336q0 113 -41 216t-121 192l48 39q102 -79 160 -199t58 -248q0 -127 -58 -246.5t-159 -198.5l-49 38q80 88 121 191t41 216z" />
    <glyph glyph-name="braceleft.case" unicode="&#xe1ea;" horiz-adv-x="391" 
d="M131 512q-17 35 -22.5 55.5t-5.5 42.5q0 80 63 123.5t181 43.5v-71q-75 0 -112.5 -24.5t-37.5 -73.5q0 -16 3.5 -32.5t15.5 -45.5q13 -31 17 -50t4 -39q0 -29 -14.5 -56t-35.5 -40q21 -14 35.5 -41.5t14.5 -55.5q0 -20 -4 -38.5t-17 -50.5q-12 -30 -15.5 -46t-3.5 -33
q0 -48 37.5 -72t112.5 -24v-71q-119 0 -181.5 43t-62.5 123q0 22 5.5 43t22.5 54q13 28 17 42t4 27q0 30 -15.5 46.5t-41.5 16.5h-39v73h39q26 0 41.5 16.5t15.5 46.5q0 13 -4 27t-17 41z" />
    <glyph glyph-name="braceright.case" unicode="&#xe1eb;" horiz-adv-x="391" 
d="M287 610q0 -22 -5.5 -42.5t-21.5 -55.5q-13 -27 -17 -41t-4 -27q0 -30 15 -46.5t41 -16.5h39v-73h-39q-26 0 -41 -16.5t-15 -46.5q0 -13 4 -27t17 -42q16 -33 21.5 -54t5.5 -43q0 -80 -62.5 -123t-180.5 -43v71q75 0 112.5 24t37.5 72q0 17 -3.5 33t-16.5 46
q-13 32 -17 50.5t-4 38.5q0 28 14.5 55.5t35.5 41.5q-21 13 -35.5 40t-14.5 56q0 20 4 39t18 50q12 29 15.5 45.5t3.5 32.5q0 49 -37.5 73.5t-112.5 24.5v71q118 0 180.5 -43.5t62.5 -123.5z" />
    <glyph glyph-name="bracketleft.case" unicode="&#xe1ec;" horiz-adv-x="363" 
d="M320 777v-76h-155v-711h155v-76h-245v863h245z" />
    <glyph glyph-name="bracketright.case" unicode="&#xe1ed;" horiz-adv-x="363" 
d="M42 701v76h245v-863h-245v76h155v711h-155z" />
    <glyph glyph-name="endash.case" unicode="&#xe1ee;" 
d="M455 362v-75h-410v75h410z" />
    <glyph glyph-name="emdash.case" unicode="&#xe1ef;" horiz-adv-x="1000" 
d="M955 362v-75h-910v75h910z" />
    <glyph glyph-name="guillemotleft.case" unicode="&#xe1f0;" horiz-adv-x="609" 
d="M547 147l-38 -38l-217 191v50l217 191l38 -38l-163 -178zM304 147l-38 -38l-217 191v50l217 191l38 -38l-163 -178z" />
    <glyph glyph-name="guillemotright.case" unicode="&#xe1f1;" horiz-adv-x="609" 
d="M304 503l39 38l216 -191v-50l-216 -191l-39 38l164 178zM61 503l39 38l216 -191v-50l-216 -191l-39 38l164 178z" />
    <glyph glyph-name="guilsinglleft.case" unicode="&#xe1f2;" horiz-adv-x="366" 
d="M304 147l-38 -38l-217 191v50l217 191l38 -38l-163 -178z" />
    <glyph glyph-name="guilsinglright.case" unicode="&#xe1f3;" horiz-adv-x="366" 
d="M61 503l39 38l216 -191v-50l-216 -191l-39 38l164 178z" />
    <glyph glyph-name="bullet.case" unicode="&#xe1f4;" horiz-adv-x="295" 
d="M50 353q0 43 27.5 70.5t70.5 27.5t70 -27.5t27 -70.5t-27 -70.5t-70 -27.5t-70.5 27.5t-27.5 70.5z" />
    <glyph glyph-name="questiondown.case" unicode="&#xe1f6;" horiz-adv-x="470" 
d="M221 690h108v-122h-108v122zM225 354l11 124h74l11 -175l-62 -19q-67 -18 -93.5 -44t-26.5 -69q0 -41 29.5 -66t78.5 -25q36 0 74.5 16t72.5 44l46 -75q-53 -42 -100 -58.5t-103 -16.5q-87 0 -142 47t-55 122q0 68 38 114.5t114 70.5z" />
    <glyph glyph-name="exclamdown.case" unicode="&#xe1f7;" horiz-adv-x="290" 
d="M88 690h108v-122h-108v122zM111 481h66l27 -233v-248h-119v248z" />
    <glyph glyph-name="hyphen.case" unicode="&#xe1f8;" horiz-adv-x="418" 
d="M360 372v-75h-302v75h302z" />
    <glyph glyph-name="at.case" unicode="&#xe1fb;" horiz-adv-x="984" 
d="M123 321q0 -165 107.5 -259.5t289.5 -94.5q58 0 114 10.5t118 33.5l21 -62q-51 -24 -118 -38t-136 -14q-214 0 -344.5 116.5t-130.5 309.5q0 191 125 311.5t325 120.5q194 0 320 -110.5t126 -279.5q0 -119 -58 -196.5t-139 -77.5q-47 0 -78 19.5t-49 60.5
q-30 -38 -71.5 -59t-90.5 -21q-91 0 -147 64t-56 164q0 98 60 163.5t149 65.5q43 0 79.5 -17t66.5 -52v64h88v-305q0 -36 17.5 -58t47.5 -22q45 0 73.5 57t28.5 145q0 143 -103.5 234t-261.5 91q-169 0 -271 -100t-102 -264zM344 320q0 -66 37.5 -109t95.5 -43q41 0 76.5 20
t52.5 54v154q-18 34 -53 54t-74 20q-59 0 -97 -42t-38 -108z" />
    <glyph glyph-name="commaaccent" unicode="&#xf6c3;" 
d="M244 -175h-43v111h100v-69q0 -44 -19.5 -77t-58.5 -55l-24 20q19 13 30.5 31t14.5 39z" />
    </font>
</defs>
</svg>
